<svg width="274" height="280" viewBox="0 0 274 280" fill="none" xmlns="http://www.w3.org/2000/svg">
<g opacity="0.29">
<path d="M0 11.5385C0 5.16595 5.16885 0 11.5449 0H262.455C268.831 0 274 5.16595 274 11.5385V268.462C274 274.834 268.831 280 262.455 280H11.5449C5.16884 280 0 274.834 0 268.462V11.5385Z" fill="#E6EBF2"/>
<path d="M67.9678 118.842V118.15H70.5723V118.842H67.9678Z" fill="#252C58"/>
<path d="M72.9973 120.753V115.178L73.2651 115.381L72.0644 116.101L71.852 115.455L73.4498 114.513H73.7269V120.753H72.9973ZM72.046 121.067V120.365H74.6967V121.067H72.046Z" fill="#252C58"/>
<path d="M78.1418 121.159C77.6369 121.159 77.2059 121.027 76.8487 120.762C76.4978 120.498 76.2268 120.119 76.036 119.627C75.8512 119.128 75.7589 118.532 75.7589 117.836C75.7589 117.141 75.8512 116.547 76.036 116.055C76.2268 115.556 76.4978 115.175 76.8487 114.91C77.2059 114.645 77.6369 114.513 78.1418 114.513C78.6405 114.513 79.0684 114.645 79.4256 114.91C79.7827 115.175 80.0536 115.556 80.2383 116.055C80.4292 116.547 80.5246 117.141 80.5246 117.836C80.5246 118.532 80.4292 119.128 80.2383 119.627C80.0536 120.119 79.7827 120.498 79.4256 120.762C79.0684 121.027 78.6405 121.159 78.1418 121.159ZM78.1418 120.485C78.6713 120.485 79.0777 120.255 79.3609 119.793C79.6503 119.332 79.795 118.679 79.795 117.836C79.795 116.993 79.6503 116.341 79.3609 115.879C79.0777 115.418 78.6713 115.187 78.1418 115.187C77.6061 115.187 77.1935 115.418 76.9041 115.879C76.6209 116.341 76.4793 116.993 76.4793 117.836C76.4793 118.679 76.6209 119.332 76.9041 119.793C77.1935 120.255 77.6061 120.485 78.1418 120.485Z" fill="#252C58"/>
<path d="M82.3008 121.067L86.5955 114.605H87.3251L83.0119 121.067H82.3008ZM82.781 118.03C82.504 118.03 82.2577 117.956 82.0422 117.808C81.8328 117.655 81.6666 117.448 81.5434 117.19C81.4264 116.925 81.3679 116.624 81.3679 116.285C81.3679 115.947 81.4264 115.645 81.5434 115.381C81.6666 115.11 81.8359 114.901 82.0514 114.753C82.2669 114.599 82.5132 114.522 82.7903 114.522C83.0673 114.522 83.3106 114.599 83.5199 114.753C83.7354 114.901 83.9017 115.11 84.0186 115.381C84.1418 115.645 84.2034 115.947 84.2034 116.285C84.2034 116.612 84.1418 116.907 84.0186 117.172C83.8955 117.436 83.7262 117.645 83.5107 117.799C83.2952 117.953 83.0519 118.03 82.781 118.03ZM82.7903 117.476C82.9565 117.476 83.0981 117.43 83.2151 117.338C83.3383 117.239 83.4306 117.101 83.4922 116.922C83.5599 116.744 83.5938 116.528 83.5938 116.276C83.5938 116.03 83.5599 115.818 83.4922 115.639C83.4306 115.461 83.3383 115.322 83.2151 115.224C83.092 115.125 82.9473 115.076 82.781 115.076C82.6148 115.076 82.4701 115.128 82.3469 115.233C82.2238 115.332 82.1283 115.47 82.0606 115.648C81.999 115.827 81.9683 116.039 81.9683 116.285C81.9683 116.532 81.999 116.744 82.0606 116.922C82.1283 117.101 82.2238 117.239 82.3469 117.338C82.4701 117.43 82.6179 117.476 82.7903 117.476ZM86.8726 121.15C86.5955 121.15 86.3492 121.076 86.1337 120.928C85.9243 120.775 85.7581 120.568 85.6349 120.31C85.5118 120.045 85.4502 119.744 85.4502 119.405C85.4502 119.067 85.5087 118.765 85.6257 118.501C85.7488 118.23 85.9182 118.021 86.1337 117.873C86.3492 117.719 86.5955 117.642 86.8726 117.642C87.1496 117.642 87.3929 117.719 87.6022 117.873C87.8177 118.021 87.9839 118.23 88.1009 118.501C88.2241 118.765 88.2857 119.067 88.2857 119.405C88.2857 119.732 88.2241 120.027 88.1009 120.292C87.9778 120.556 87.8085 120.765 87.593 120.919C87.3836 121.073 87.1435 121.15 86.8726 121.15ZM86.8726 120.596C87.0388 120.596 87.1835 120.55 87.3066 120.458C87.4298 120.359 87.5222 120.221 87.5837 120.042C87.6515 119.864 87.6853 119.648 87.6853 119.396C87.6853 119.15 87.6515 118.938 87.5837 118.759C87.5222 118.581 87.4298 118.442 87.3066 118.344C87.1835 118.245 87.0388 118.196 86.8726 118.196C86.7001 118.196 86.5524 118.245 86.4292 118.344C86.3122 118.442 86.2199 118.584 86.1522 118.768C86.0906 118.947 86.0598 119.159 86.0598 119.405C86.0598 119.652 86.0906 119.864 86.1522 120.042C86.2199 120.221 86.3122 120.359 86.4292 120.458C86.5524 120.55 86.7001 120.596 86.8726 120.596Z" fill="#252C58"/>
<path d="M92.3035 121.067V114.605H93.0239V120.365H96.1272V121.067H92.3035Z" fill="#252C58"/>
<path d="M99.2016 121.159C98.7214 121.159 98.2934 121.055 97.9178 120.845C97.5484 120.636 97.259 120.344 97.0496 119.968C96.8403 119.593 96.7356 119.162 96.7356 118.676C96.7356 118.301 96.7941 117.962 96.9111 117.661C97.0281 117.353 97.1913 117.085 97.4006 116.858C97.6161 116.63 97.8716 116.455 98.1672 116.332C98.4627 116.202 98.7829 116.138 99.1277 116.138C99.4541 116.138 99.7496 116.196 100.014 116.313C100.285 116.43 100.516 116.593 100.707 116.802C100.904 117.005 101.052 117.248 101.15 117.532C101.249 117.815 101.292 118.125 101.28 118.464L101.27 118.787H97.2528L97.1512 118.205H100.744L100.578 118.362V118.141C100.565 117.919 100.501 117.707 100.384 117.504C100.267 117.295 100.101 117.125 99.8851 116.996C99.6757 116.867 99.4233 116.802 99.1277 116.802C98.7829 116.802 98.4843 116.873 98.2318 117.015C97.9794 117.15 97.7854 117.353 97.65 117.624C97.5145 117.895 97.4468 118.23 97.4468 118.63C97.4468 119.012 97.5207 119.344 97.6684 119.627C97.8162 119.904 98.0256 120.119 98.2965 120.273C98.5736 120.427 98.9061 120.504 99.294 120.504C99.5218 120.504 99.7465 120.467 99.9682 120.393C100.196 120.313 100.445 120.159 100.716 119.932L101.077 120.43C100.935 120.572 100.766 120.698 100.569 120.808C100.372 120.913 100.156 120.999 99.922 121.067C99.688 121.128 99.4479 121.159 99.2016 121.159Z" fill="#252C58"/>
<path d="M103.843 121.159C103.43 121.159 103.061 121.082 102.735 120.928C102.408 120.775 102.15 120.572 101.959 120.319L102.448 119.895C102.627 120.11 102.836 120.273 103.076 120.384C103.323 120.495 103.597 120.55 103.898 120.55C104.052 120.55 104.191 120.535 104.314 120.504C104.437 120.467 104.545 120.415 104.637 120.347C104.73 120.279 104.8 120.199 104.85 120.107C104.899 120.015 104.924 119.913 104.924 119.802C104.924 119.599 104.834 119.43 104.656 119.295C104.576 119.239 104.462 119.184 104.314 119.128C104.166 119.067 103.988 119.008 103.778 118.953C103.433 118.855 103.147 118.756 102.919 118.658C102.691 118.553 102.513 118.433 102.384 118.298C102.291 118.187 102.22 118.067 102.171 117.938C102.128 117.808 102.107 117.667 102.107 117.513C102.107 117.316 102.147 117.135 102.227 116.968C102.313 116.802 102.43 116.658 102.578 116.535C102.732 116.405 102.91 116.31 103.113 116.248C103.323 116.181 103.547 116.147 103.787 116.147C104.015 116.147 104.24 116.178 104.462 116.239C104.683 116.301 104.89 116.39 105.081 116.507C105.271 116.624 105.435 116.762 105.57 116.922L105.145 117.384C105.028 117.261 104.899 117.15 104.757 117.052C104.616 116.953 104.465 116.876 104.305 116.821C104.151 116.765 103.991 116.738 103.824 116.738C103.677 116.738 103.538 116.756 103.409 116.793C103.286 116.83 103.178 116.882 103.086 116.95C102.999 117.012 102.932 117.088 102.882 117.181C102.839 117.273 102.818 117.375 102.818 117.485C102.818 117.578 102.836 117.661 102.873 117.735C102.91 117.808 102.962 117.873 103.03 117.928C103.116 117.996 103.236 118.061 103.39 118.122C103.55 118.178 103.747 118.236 103.981 118.298C104.252 118.372 104.48 118.448 104.665 118.528C104.856 118.602 105.013 118.692 105.136 118.796C105.302 118.919 105.419 119.061 105.487 119.221C105.561 119.381 105.598 119.562 105.598 119.765C105.598 120.036 105.521 120.276 105.367 120.485C105.219 120.695 105.013 120.861 104.748 120.984C104.483 121.101 104.182 121.159 103.843 121.159Z" fill="#252C58"/>
<path d="M108.262 121.159C107.85 121.159 107.48 121.082 107.154 120.928C106.828 120.775 106.569 120.572 106.378 120.319L106.868 119.895C107.046 120.11 107.256 120.273 107.496 120.384C107.742 120.495 108.016 120.55 108.318 120.55C108.472 120.55 108.61 120.535 108.733 120.504C108.857 120.467 108.964 120.415 109.057 120.347C109.149 120.279 109.22 120.199 109.269 120.107C109.318 120.015 109.343 119.913 109.343 119.802C109.343 119.599 109.254 119.43 109.075 119.295C108.995 119.239 108.881 119.184 108.733 119.128C108.586 119.067 108.407 119.008 108.198 118.953C107.853 118.855 107.567 118.756 107.339 118.658C107.111 118.553 106.932 118.433 106.803 118.298C106.711 118.187 106.64 118.067 106.591 117.938C106.548 117.808 106.526 117.667 106.526 117.513C106.526 117.316 106.566 117.135 106.646 116.968C106.732 116.802 106.849 116.658 106.997 116.535C107.151 116.405 107.33 116.31 107.533 116.248C107.742 116.181 107.967 116.147 108.207 116.147C108.435 116.147 108.66 116.178 108.881 116.239C109.103 116.301 109.309 116.39 109.5 116.507C109.691 116.624 109.854 116.762 109.99 116.922L109.565 117.384C109.448 117.261 109.318 117.15 109.177 117.052C109.035 116.953 108.884 116.876 108.724 116.821C108.57 116.765 108.41 116.738 108.244 116.738C108.096 116.738 107.958 116.756 107.828 116.793C107.705 116.83 107.597 116.882 107.505 116.95C107.419 117.012 107.351 117.088 107.302 117.181C107.259 117.273 107.237 117.375 107.237 117.485C107.237 117.578 107.256 117.661 107.293 117.735C107.33 117.808 107.382 117.873 107.45 117.928C107.536 117.996 107.656 118.061 107.81 118.122C107.97 118.178 108.167 118.236 108.401 118.298C108.672 118.372 108.9 118.448 109.084 118.528C109.275 118.602 109.432 118.692 109.555 118.796C109.722 118.919 109.839 119.061 109.906 119.221C109.98 119.381 110.017 119.562 110.017 119.765C110.017 120.036 109.94 120.276 109.786 120.485C109.639 120.695 109.432 120.861 109.168 120.984C108.903 121.101 108.601 121.159 108.262 121.159Z" fill="#252C58"/>
<path d="M114.356 121.067V114.984H115.049V121.067H114.356ZM113.266 116.913V116.248H116.268V116.913H113.266Z" fill="#252C58"/>
<path d="M117.119 121.067V114.236H117.811V117.301L117.673 117.439C117.741 117.187 117.867 116.965 118.051 116.775C118.236 116.578 118.452 116.424 118.698 116.313C118.95 116.202 119.206 116.147 119.465 116.147C119.834 116.147 120.142 116.218 120.388 116.359C120.634 116.501 120.816 116.719 120.933 117.015C121.056 117.31 121.118 117.685 121.118 118.141V121.067H120.416V118.178C120.416 117.858 120.373 117.596 120.287 117.393C120.207 117.184 120.08 117.03 119.908 116.932C119.736 116.833 119.52 116.787 119.261 116.793C119.058 116.793 118.867 116.83 118.689 116.904C118.51 116.972 118.356 117.067 118.227 117.19C118.098 117.313 117.996 117.455 117.922 117.615C117.848 117.775 117.811 117.947 117.811 118.132V121.067H117.47C117.427 121.067 117.377 121.067 117.322 121.067C117.266 121.067 117.199 121.067 117.119 121.067Z" fill="#252C58"/>
<path d="M124.324 121.159C123.906 121.159 123.527 121.052 123.188 120.836C122.85 120.615 122.582 120.316 122.385 119.941C122.188 119.559 122.089 119.128 122.089 118.648C122.089 118.162 122.191 117.732 122.394 117.356C122.597 116.981 122.868 116.685 123.207 116.47C123.552 116.255 123.936 116.147 124.361 116.147C124.614 116.147 124.848 116.184 125.063 116.258C125.279 116.332 125.47 116.436 125.636 116.572C125.808 116.701 125.95 116.855 126.061 117.033C126.178 117.205 126.258 117.393 126.301 117.596L126.098 117.495L126.125 116.248H126.818V121.067H126.116V119.885L126.301 119.765C126.258 119.95 126.175 120.128 126.051 120.301C125.928 120.467 125.777 120.615 125.599 120.744C125.426 120.873 125.229 120.975 125.008 121.048C124.792 121.122 124.564 121.159 124.324 121.159ZM124.481 120.495C124.801 120.495 125.088 120.418 125.34 120.264C125.593 120.104 125.79 119.885 125.931 119.608C126.079 119.325 126.153 119.005 126.153 118.648C126.153 118.292 126.079 117.975 125.931 117.698C125.79 117.421 125.593 117.202 125.34 117.042C125.088 116.882 124.801 116.802 124.481 116.802C124.155 116.802 123.866 116.882 123.613 117.042C123.367 117.202 123.17 117.421 123.022 117.698C122.88 117.975 122.81 118.292 122.81 118.648C122.81 118.999 122.88 119.316 123.022 119.599C123.164 119.876 123.361 120.095 123.613 120.255C123.866 120.415 124.155 120.495 124.481 120.495Z" fill="#252C58"/>
<path d="M128.168 121.067V116.248H128.851L128.879 117.255L128.768 117.301C128.829 117.092 128.95 116.901 129.128 116.728C129.307 116.556 129.519 116.418 129.765 116.313C130.018 116.202 130.276 116.147 130.541 116.147C130.898 116.147 131.197 116.218 131.437 116.359C131.677 116.501 131.859 116.719 131.982 117.015C132.105 117.31 132.167 117.685 132.167 118.141V121.067H131.465V118.178C131.465 117.858 131.422 117.596 131.335 117.393C131.255 117.184 131.129 117.03 130.957 116.932C130.784 116.833 130.572 116.787 130.319 116.793C130.11 116.793 129.916 116.83 129.738 116.904C129.559 116.972 129.405 117.067 129.276 117.19C129.147 117.313 129.045 117.455 128.971 117.615C128.897 117.775 128.86 117.947 128.86 118.132V121.067H128.518C128.475 121.067 128.426 121.067 128.371 121.067C128.315 121.067 128.248 121.067 128.168 121.067Z" fill="#252C58"/>
<path d="M136.89 123.19L137.823 120.919L137.888 121.575L135.468 116.248H136.253L137.906 119.941C137.956 120.039 138.005 120.156 138.054 120.292C138.103 120.421 138.15 120.55 138.193 120.679L137.934 120.652C137.977 120.547 138.017 120.439 138.054 120.328C138.097 120.218 138.137 120.11 138.174 120.005L139.624 116.248H140.419L138.47 121.067L137.638 123.19H136.89Z" fill="#252C58"/>
<path d="M143.181 121.159C142.7 121.159 142.272 121.055 141.897 120.845C141.527 120.636 141.238 120.344 141.029 119.968C140.819 119.593 140.715 119.162 140.715 118.676C140.715 118.301 140.773 117.962 140.89 117.661C141.007 117.353 141.17 117.085 141.38 116.858C141.595 116.63 141.851 116.455 142.146 116.332C142.442 116.202 142.762 116.138 143.107 116.138C143.433 116.138 143.729 116.196 143.993 116.313C144.264 116.43 144.495 116.593 144.686 116.802C144.883 117.005 145.031 117.248 145.129 117.532C145.228 117.815 145.271 118.125 145.259 118.464L145.249 118.787H141.232L141.13 118.205H144.723L144.557 118.362V118.141C144.544 117.919 144.48 117.707 144.363 117.504C144.246 117.295 144.08 117.125 143.864 116.996C143.655 116.867 143.402 116.802 143.107 116.802C142.762 116.802 142.463 116.873 142.211 117.015C141.958 117.15 141.764 117.353 141.629 117.624C141.494 117.895 141.426 118.23 141.426 118.63C141.426 119.012 141.5 119.344 141.647 119.627C141.795 119.904 142.005 120.119 142.276 120.273C142.553 120.427 142.885 120.504 143.273 120.504C143.501 120.504 143.726 120.467 143.947 120.393C144.175 120.313 144.424 120.159 144.695 119.932L145.056 120.43C144.914 120.572 144.745 120.698 144.548 120.808C144.351 120.913 144.135 120.999 143.901 121.067C143.667 121.128 143.427 121.159 143.181 121.159Z" fill="#252C58"/>
<path d="M147.822 121.159C147.409 121.159 147.04 121.082 146.714 120.928C146.387 120.775 146.129 120.572 145.938 120.319L146.427 119.895C146.606 120.11 146.815 120.273 147.055 120.384C147.302 120.495 147.576 120.55 147.877 120.55C148.031 120.55 148.17 120.535 148.293 120.504C148.416 120.467 148.524 120.415 148.616 120.347C148.709 120.279 148.779 120.199 148.829 120.107C148.878 120.015 148.903 119.913 148.903 119.802C148.903 119.599 148.813 119.43 148.635 119.295C148.555 119.239 148.441 119.184 148.293 119.128C148.145 119.067 147.967 119.008 147.757 118.953C147.412 118.855 147.126 118.756 146.898 118.658C146.671 118.553 146.492 118.433 146.363 118.298C146.27 118.187 146.199 118.067 146.15 117.938C146.107 117.808 146.086 117.667 146.086 117.513C146.086 117.316 146.126 117.135 146.206 116.968C146.292 116.802 146.409 116.658 146.557 116.535C146.711 116.405 146.889 116.31 147.092 116.248C147.302 116.181 147.526 116.147 147.767 116.147C147.994 116.147 148.219 116.178 148.441 116.239C148.662 116.301 148.869 116.39 149.06 116.507C149.25 116.624 149.414 116.762 149.549 116.922L149.124 117.384C149.007 117.261 148.878 117.15 148.736 117.052C148.595 116.953 148.444 116.876 148.284 116.821C148.13 116.765 147.97 116.738 147.803 116.738C147.656 116.738 147.517 116.756 147.388 116.793C147.265 116.83 147.157 116.882 147.065 116.95C146.978 117.012 146.911 117.088 146.861 117.181C146.818 117.273 146.797 117.375 146.797 117.485C146.797 117.578 146.815 117.661 146.852 117.735C146.889 117.808 146.941 117.873 147.009 117.928C147.095 117.996 147.215 118.061 147.369 118.122C147.529 118.178 147.726 118.236 147.96 118.298C148.231 118.372 148.459 118.448 148.644 118.528C148.835 118.602 148.992 118.692 149.115 118.796C149.281 118.919 149.398 119.061 149.466 119.221C149.54 119.381 149.577 119.562 149.577 119.765C149.577 120.036 149.5 120.276 149.346 120.485C149.198 120.695 148.992 120.861 148.727 120.984C148.462 121.101 148.161 121.159 147.822 121.159Z" fill="#252C58"/>
<path d="M151.327 121.067V114.984H152.02V121.067H151.327ZM150.237 116.913V116.248H153.239V116.913H150.237Z" fill="#252C58"/>
<path d="M156.169 121.159C155.688 121.159 155.26 121.055 154.885 120.845C154.515 120.636 154.226 120.344 154.017 119.968C153.807 119.593 153.703 119.162 153.703 118.676C153.703 118.301 153.761 117.962 153.878 117.661C153.995 117.353 154.158 117.085 154.368 116.858C154.583 116.63 154.839 116.455 155.134 116.332C155.43 116.202 155.75 116.138 156.095 116.138C156.421 116.138 156.717 116.196 156.981 116.313C157.252 116.43 157.483 116.593 157.674 116.802C157.871 117.005 158.019 117.248 158.117 117.532C158.216 117.815 158.259 118.125 158.247 118.464L158.238 118.787H154.22L154.118 118.205H157.711L157.545 118.362V118.141C157.533 117.919 157.468 117.707 157.351 117.504C157.234 117.295 157.068 117.125 156.852 116.996C156.643 116.867 156.39 116.802 156.095 116.802C155.75 116.802 155.451 116.873 155.199 117.015C154.946 117.15 154.753 117.353 154.617 117.624C154.482 117.895 154.414 118.23 154.414 118.63C154.414 119.012 154.488 119.344 154.636 119.627C154.783 119.904 154.993 120.119 155.264 120.273C155.541 120.427 155.873 120.504 156.261 120.504C156.489 120.504 156.714 120.467 156.935 120.393C157.163 120.313 157.412 120.159 157.683 119.932L158.044 120.43C157.902 120.572 157.733 120.698 157.536 120.808C157.339 120.913 157.123 120.999 156.889 121.067C156.655 121.128 156.415 121.159 156.169 121.159Z" fill="#252C58"/>
<path d="M159.231 121.067V116.248H159.923L159.942 117.532L159.868 117.356C159.936 117.141 160.043 116.941 160.191 116.756C160.345 116.572 160.527 116.424 160.736 116.313C160.945 116.202 161.176 116.147 161.429 116.147C161.533 116.147 161.632 116.156 161.724 116.175C161.817 116.187 161.894 116.205 161.955 116.23L161.761 117.005C161.681 116.968 161.598 116.944 161.512 116.932C161.432 116.913 161.355 116.904 161.281 116.904C161.072 116.904 160.884 116.941 160.718 117.015C160.551 117.088 160.41 117.193 160.293 117.328C160.176 117.458 160.087 117.608 160.025 117.781C159.963 117.953 159.933 118.138 159.933 118.335V121.067H159.231Z" fill="#252C58"/>
<path d="M164.427 121.159C163.989 121.159 163.595 121.052 163.244 120.836C162.9 120.621 162.626 120.325 162.422 119.95C162.225 119.568 162.127 119.138 162.127 118.658C162.127 118.172 162.229 117.741 162.432 117.365C162.635 116.984 162.909 116.685 163.254 116.47C163.598 116.255 163.986 116.147 164.417 116.147C164.658 116.147 164.888 116.184 165.11 116.258C165.338 116.332 165.541 116.436 165.72 116.572C165.898 116.701 166.046 116.852 166.163 117.024C166.28 117.19 166.351 117.365 166.375 117.55L166.163 117.476V114.236H166.856V121.067H166.172L166.154 119.867L166.329 119.802C166.305 119.975 166.234 120.144 166.117 120.31C166.006 120.47 165.864 120.615 165.692 120.744C165.52 120.873 165.323 120.975 165.101 121.048C164.885 121.122 164.661 121.159 164.427 121.159ZM164.528 120.522C164.848 120.522 165.135 120.442 165.387 120.282C165.64 120.122 165.837 119.901 165.978 119.618C166.126 119.335 166.2 119.012 166.2 118.648C166.2 118.285 166.126 117.965 165.978 117.688C165.837 117.405 165.64 117.184 165.387 117.024C165.135 116.858 164.848 116.775 164.528 116.775C164.196 116.775 163.903 116.858 163.651 117.024C163.405 117.184 163.208 117.405 163.06 117.688C162.918 117.965 162.847 118.285 162.847 118.648C162.847 119.005 162.918 119.325 163.06 119.608C163.201 119.892 163.398 120.116 163.651 120.282C163.903 120.442 164.196 120.522 164.528 120.522Z" fill="#252C58"/>
<path d="M170.089 121.159C169.67 121.159 169.292 121.052 168.953 120.836C168.614 120.615 168.347 120.316 168.15 119.941C167.953 119.559 167.854 119.128 167.854 118.648C167.854 118.162 167.956 117.732 168.159 117.356C168.362 116.981 168.633 116.685 168.972 116.47C169.316 116.255 169.701 116.147 170.126 116.147C170.379 116.147 170.613 116.184 170.828 116.258C171.044 116.332 171.234 116.436 171.401 116.572C171.573 116.701 171.715 116.855 171.826 117.033C171.943 117.205 172.023 117.393 172.066 117.596L171.862 117.495L171.89 116.248H172.583V121.067H171.881V119.885L172.066 119.765C172.023 119.95 171.939 120.128 171.816 120.301C171.693 120.467 171.542 120.615 171.364 120.744C171.191 120.873 170.994 120.975 170.773 121.048C170.557 121.122 170.329 121.159 170.089 121.159ZM170.246 120.495C170.566 120.495 170.853 120.418 171.105 120.264C171.358 120.104 171.555 119.885 171.696 119.608C171.844 119.325 171.918 119.005 171.918 118.648C171.918 118.292 171.844 117.975 171.696 117.698C171.555 117.421 171.358 117.202 171.105 117.042C170.853 116.882 170.566 116.802 170.246 116.802C169.92 116.802 169.63 116.882 169.378 117.042C169.132 117.202 168.935 117.421 168.787 117.698C168.645 117.975 168.574 118.292 168.574 118.648C168.574 118.999 168.645 119.316 168.787 119.599C168.929 119.876 169.126 120.095 169.378 120.255C169.63 120.415 169.92 120.495 170.246 120.495Z" fill="#252C58"/>
<path d="M174.637 123.19L175.57 120.919L175.634 121.575L173.215 116.248H174L175.653 119.941C175.702 120.039 175.751 120.156 175.801 120.292C175.85 120.421 175.896 120.55 175.939 120.679L175.681 120.652C175.724 120.547 175.764 120.439 175.801 120.328C175.844 120.218 175.884 120.11 175.921 120.005L177.371 116.248H178.165L176.216 121.067L175.385 123.19H174.637Z" fill="#252C58"/>
<path d="M62.6925 118.82C62.6925 122.417 60.0298 125.332 56.7451 125.332C53.4605 125.332 50.7978 122.417 50.7978 118.82C50.7978 115.223 53.4605 112.308 56.7451 112.308C60.0298 112.308 62.6925 115.223 62.6925 118.82Z" fill="#97CE71"/>
<path d="M58.3597 106.346C57.3976 106.346 56.5125 106.179 55.7044 105.846C54.8962 105.5 54.1971 105.019 53.607 104.404C53.0169 103.776 52.5551 103.038 52.2216 102.192C51.9009 101.346 51.7406 100.423 51.7406 99.4231C51.7406 98.4359 51.9009 97.5321 52.2216 96.7115C52.5551 95.8782 53.0234 95.1538 53.6263 94.5385C54.2292 93.9103 54.9283 93.4295 55.7236 93.0962C56.5189 92.7628 57.3912 92.5962 58.3405 92.5962C58.969 92.5962 59.5911 92.6987 60.2069 92.9038C60.8226 93.0962 61.387 93.3654 61.9001 93.7115C62.4261 94.0577 62.8558 94.4551 63.1893 94.9038L62.1503 95.9808C61.8296 95.5962 61.4576 95.2628 61.0343 94.9808C60.6238 94.6987 60.1876 94.4808 59.7258 94.3269C59.264 94.1731 58.8022 94.0962 58.3405 94.0962C57.6221 94.0962 56.9486 94.2308 56.3201 94.5C55.7044 94.7564 55.172 95.1218 54.723 95.5962C54.2741 96.0705 53.9213 96.6346 53.6647 97.2885C53.421 97.9423 53.2992 98.6538 53.2992 99.4231C53.2992 100.218 53.421 100.949 53.6647 101.615C53.9213 102.282 54.2805 102.859 54.7423 103.346C55.2169 103.821 55.7685 104.192 56.3971 104.462C57.0384 104.718 57.7504 104.846 58.5329 104.846C58.9947 104.846 59.4565 104.782 59.9183 104.654C60.3801 104.513 60.8034 104.321 61.1882 104.077C61.573 103.833 61.9001 103.558 62.1695 103.25L62.9392 104.5C62.6441 104.859 62.2465 105.179 61.7462 105.462C61.2588 105.731 60.72 105.949 60.1299 106.115C59.5398 106.269 58.9498 106.346 58.3597 106.346Z" fill="#252C58"/>
<path d="M69.1308 106.346C68.2585 106.346 67.4696 106.122 66.764 105.673C66.0585 105.212 65.5005 104.59 65.09 103.808C64.6796 103.013 64.4743 102.115 64.4743 101.115C64.4743 100.103 64.686 99.2051 65.1093 98.4231C65.5326 97.641 66.097 97.0256 66.8025 96.5769C67.5209 96.1282 68.3226 95.9038 69.2077 95.9038C69.7337 95.9038 70.2211 95.9808 70.6701 96.1346C71.1191 96.2885 71.5167 96.5064 71.8631 96.7885C72.2222 97.0577 72.5173 97.3782 72.7482 97.75C72.9919 98.109 73.1587 98.5 73.2485 98.9231L72.8251 98.7115L72.8829 96.1154H74.326V106.154H72.8636V103.692L73.2485 103.442C73.1587 103.827 72.9855 104.199 72.7289 104.558C72.4724 104.904 72.1581 105.212 71.7861 105.481C71.4269 105.75 71.0164 105.962 70.5546 106.115C70.1057 106.269 69.631 106.346 69.1308 106.346ZM69.4579 104.962C70.1249 104.962 70.7214 104.801 71.2473 104.481C71.7733 104.147 72.1838 103.692 72.4788 103.115C72.7867 102.526 72.9406 101.859 72.9406 101.115C72.9406 100.372 72.7867 99.7115 72.4788 99.1346C72.1838 98.5577 71.7733 98.1026 71.2473 97.7692C70.7214 97.4359 70.1249 97.2692 69.4579 97.2692C68.778 97.2692 68.1751 97.4359 67.6492 97.7692C67.1361 98.1026 66.7256 98.5577 66.4177 99.1346C66.1227 99.7115 65.9751 100.372 65.9751 101.115C65.9751 101.846 66.1227 102.506 66.4177 103.096C66.7127 103.673 67.1232 104.128 67.6492 104.462C68.1751 104.795 68.778 104.962 69.4579 104.962Z" fill="#252C58"/>
<path d="M77.1183 106.154V96.1154H78.5614L78.5999 98.4038L78.3112 98.5C78.4139 98.1154 78.5806 97.7692 78.8115 97.4615C79.0553 97.141 79.3439 96.8654 79.6774 96.6346C80.0109 96.4038 80.3765 96.2308 80.7742 96.1154C81.1718 95.9872 81.5887 95.9231 82.0249 95.9231C82.5508 95.9231 83.019 96.0128 83.4295 96.1923C83.8528 96.359 84.2056 96.6538 84.4878 97.0769C84.7828 97.4872 85.0073 98.0321 85.1612 98.7115L84.8149 98.5385L84.9496 98.2115C85.0779 97.9167 85.2639 97.6346 85.5076 97.3654C85.7641 97.0833 86.0528 96.8333 86.3735 96.6154C86.707 96.3974 87.0662 96.2308 87.451 96.1154C87.8487 95.9872 88.2527 95.9231 88.6632 95.9231C89.3687 95.9231 89.9652 96.0769 90.4527 96.3846C90.9401 96.6795 91.3057 97.1346 91.5495 97.75C91.806 98.3654 91.9343 99.1474 91.9343 100.096V106.154H90.4527V100.173C90.4527 99.5064 90.3693 98.9615 90.2025 98.5385C90.0358 98.1154 89.7856 97.8013 89.4521 97.5962C89.1314 97.3782 88.7209 97.2692 88.2207 97.2692C87.7845 97.2692 87.3804 97.3462 87.0084 97.5C86.6493 97.641 86.335 97.8462 86.0656 98.1154C85.8091 98.3718 85.6038 98.6667 85.4499 99C85.3088 99.3333 85.2382 99.6923 85.2382 100.077V106.154H83.7758V100.154C83.7758 99.5128 83.6861 98.9808 83.5065 98.5577C83.3397 98.1346 83.0896 97.8141 82.7561 97.5962C82.4225 97.3782 82.012 97.2692 81.5246 97.2692C81.1013 97.2692 80.71 97.3462 80.3509 97.5C79.9917 97.641 79.6774 97.8397 79.408 98.0962C79.1515 98.3526 78.9462 98.6474 78.7923 98.9808C78.6512 99.3141 78.5806 99.6731 78.5806 100.058V106.154H77.1183Z" fill="#252C58"/>
<path d="M94.6691 110.385V96.1154H96.1123L96.1507 98.5577L95.8814 98.5962C95.9968 98.109 96.2469 97.6667 96.6318 97.2692C97.0166 96.859 97.4848 96.5321 98.0364 96.2885C98.588 96.0449 99.1717 95.9231 99.7874 95.9231C100.685 95.9231 101.487 96.1474 102.193 96.5962C102.911 97.0449 103.482 97.6603 103.905 98.4423C104.328 99.2244 104.54 100.122 104.54 101.135C104.54 102.135 104.335 103.026 103.924 103.808C103.514 104.59 102.949 105.212 102.231 105.673C101.513 106.122 100.705 106.346 99.8066 106.346C99.1781 106.346 98.5816 106.218 98.0172 105.962C97.4528 105.705 96.9717 105.372 96.5741 104.962C96.1764 104.538 95.9134 104.083 95.7852 103.596H96.1315V110.385H94.6691ZM99.5757 104.962C100.256 104.962 100.859 104.795 101.384 104.462C101.91 104.128 102.327 103.673 102.635 103.096C102.943 102.519 103.097 101.865 103.097 101.135C103.097 100.391 102.943 99.7308 102.635 99.1538C102.327 98.5769 101.91 98.1218 101.384 97.7885C100.859 97.4551 100.256 97.2885 99.5757 97.2885C98.8959 97.2885 98.2866 97.4551 97.7478 97.7885C97.2219 98.109 96.805 98.5577 96.4971 99.1346C96.1892 99.7115 96.0353 100.372 96.0353 101.115C96.0353 101.859 96.1892 102.519 96.4971 103.096C96.805 103.673 97.2219 104.128 97.7478 104.462C98.2866 104.795 98.8959 104.962 99.5757 104.962Z" fill="#252C58"/>
<path d="M112.609 106.154V92.6923H114.11V104.692H120.575V106.154H112.609Z" fill="#252C58"/>
<path d="M126.98 106.346C125.979 106.346 125.088 106.128 124.305 105.692C123.536 105.256 122.933 104.647 122.497 103.865C122.061 103.083 121.842 102.186 121.842 101.173C121.842 100.391 121.964 99.6859 122.208 99.0577C122.452 98.4167 122.792 97.859 123.228 97.3846C123.677 96.9103 124.209 96.5449 124.825 96.2885C125.441 96.0192 126.108 95.8846 126.826 95.8846C127.506 95.8846 128.122 96.0064 128.673 96.25C129.238 96.4936 129.719 96.8333 130.116 97.2692C130.527 97.6923 130.835 98.1987 131.04 98.7885C131.245 99.3782 131.335 100.026 131.309 100.731L131.29 101.404H122.92L122.708 100.192H130.193L129.847 100.519V100.058C129.821 99.5962 129.687 99.1539 129.443 98.7308C129.199 98.2949 128.853 97.9423 128.404 97.6731C127.968 97.4038 127.442 97.2692 126.826 97.2692C126.108 97.2692 125.486 97.4167 124.96 97.7115C124.434 97.9936 124.03 98.4167 123.747 98.9808C123.465 99.5449 123.324 100.244 123.324 101.077C123.324 101.872 123.478 102.564 123.786 103.154C124.094 103.731 124.53 104.179 125.094 104.5C125.672 104.821 126.364 104.981 127.172 104.981C127.647 104.981 128.115 104.904 128.577 104.75C129.052 104.583 129.571 104.263 130.136 103.788L130.886 104.827C130.591 105.122 130.238 105.385 129.828 105.615C129.417 105.833 128.968 106.013 128.481 106.154C127.993 106.282 127.493 106.346 126.98 106.346Z" fill="#252C58"/>
<path d="M131.954 109.923L131.377 108.769C131.903 108.769 132.326 108.679 132.647 108.5C132.981 108.333 133.218 108.071 133.359 107.712C133.513 107.365 133.59 106.936 133.59 106.423V96.1154H135.052V106.846C135.052 107.462 134.924 108 134.667 108.462C134.411 108.923 134.052 109.282 133.59 109.538C133.128 109.795 132.583 109.923 131.954 109.923ZM134.34 93.9423C133.994 93.9423 133.725 93.8526 133.532 93.6731C133.34 93.4808 133.244 93.2244 133.244 92.9038C133.244 92.5833 133.34 92.3269 133.532 92.1346C133.725 91.9423 133.994 91.8462 134.34 91.8462C134.687 91.8462 134.956 91.9423 135.148 92.1346C135.341 92.3141 135.437 92.5705 135.437 92.9038C135.437 93.2115 135.341 93.4615 135.148 93.6538C134.956 93.8462 134.687 93.9423 134.34 93.9423Z" fill="#252C58"/>
<path d="M142.332 106.346C141.331 106.346 140.44 106.128 139.657 105.692C138.888 105.256 138.285 104.647 137.849 103.865C137.412 103.083 137.194 102.186 137.194 101.173C137.194 100.391 137.316 99.6859 137.56 99.0577C137.804 98.4167 138.144 97.859 138.58 97.3846C139.029 96.9103 139.561 96.5449 140.177 96.2885C140.793 96.0192 141.46 95.8846 142.178 95.8846C142.858 95.8846 143.474 96.0064 144.025 96.25C144.59 96.4936 145.071 96.8333 145.468 97.2692C145.879 97.6923 146.187 98.1987 146.392 98.7885C146.597 99.3782 146.687 100.026 146.661 100.731L146.642 101.404H138.272L138.06 100.192H145.545L145.199 100.519V100.058C145.173 99.5962 145.039 99.1539 144.795 98.7308C144.551 98.2949 144.205 97.9423 143.756 97.6731C143.32 97.4038 142.794 97.2692 142.178 97.2692C141.46 97.2692 140.837 97.4167 140.312 97.7115C139.786 97.9936 139.382 98.4167 139.099 98.9808C138.817 99.5449 138.676 100.244 138.676 101.077C138.676 101.872 138.83 102.564 139.138 103.154C139.446 103.731 139.882 104.179 140.446 104.5C141.023 104.821 141.716 104.981 142.524 104.981C142.999 104.981 143.467 104.904 143.929 104.75C144.404 104.583 144.923 104.263 145.487 103.788L146.238 104.827C145.943 105.122 145.59 105.385 145.18 105.615C144.769 105.833 144.32 106.013 143.833 106.154C143.345 106.282 142.845 106.346 142.332 106.346Z" fill="#252C58"/>
<path d="M152.271 106.346C151.501 106.346 150.847 106.192 150.308 105.885C149.782 105.564 149.378 105.103 149.096 104.5C148.826 103.897 148.692 103.147 148.692 102.25V96.1154H150.154V101.962C150.154 102.641 150.244 103.212 150.423 103.673C150.616 104.122 150.898 104.462 151.27 104.692C151.655 104.923 152.123 105.038 152.675 105.038C153.098 105.038 153.489 104.968 153.848 104.827C154.208 104.673 154.522 104.468 154.791 104.212C155.061 103.955 155.272 103.654 155.426 103.308C155.58 102.962 155.657 102.596 155.657 102.212V96.1154H157.1V106.154H155.676L155.619 104.038L155.85 103.923C155.696 104.372 155.439 104.782 155.08 105.154C154.721 105.513 154.291 105.801 153.791 106.019C153.303 106.237 152.797 106.346 152.271 106.346Z" fill="#252C58"/>
<path d="M159.91 106.154V96.1154H161.334L161.392 98.2115L161.161 98.3077C161.289 97.8718 161.539 97.4744 161.911 97.1154C162.283 96.7564 162.726 96.4679 163.239 96.25C163.765 96.0192 164.304 95.9038 164.855 95.9038C165.599 95.9038 166.221 96.0513 166.722 96.3462C167.222 96.641 167.6 97.0962 167.857 97.7115C168.113 98.3269 168.242 99.109 168.242 100.058V106.154H166.779V100.135C166.779 99.468 166.69 98.9231 166.51 98.5C166.343 98.0641 166.08 97.7436 165.721 97.5385C165.362 97.3333 164.919 97.2372 164.393 97.25C163.957 97.25 163.553 97.3269 163.181 97.4808C162.809 97.6218 162.488 97.8205 162.219 98.0769C161.95 98.3333 161.738 98.6282 161.584 98.9615C161.43 99.2949 161.353 99.6538 161.353 100.038V106.154H160.641C160.551 106.154 160.449 106.154 160.333 106.154C160.218 106.154 160.077 106.154 159.91 106.154Z" fill="#252C58"/>
<path d="M175.422 106.346C174.422 106.346 173.53 106.128 172.748 105.692C171.978 105.256 171.375 104.647 170.939 103.865C170.503 103.083 170.285 102.186 170.285 101.173C170.285 100.391 170.406 99.6859 170.65 99.0577C170.894 98.4167 171.234 97.859 171.67 97.3846C172.119 96.9103 172.651 96.5449 173.267 96.2885C173.883 96.0192 174.55 95.8846 175.268 95.8846C175.948 95.8846 176.564 96.0064 177.115 96.25C177.68 96.4936 178.161 96.8333 178.558 97.2692C178.969 97.6923 179.277 98.1987 179.482 98.7885C179.687 99.3782 179.777 100.026 179.751 100.731L179.732 101.404H171.362L171.15 100.192H178.635L178.289 100.519V100.058C178.263 99.5962 178.129 99.1539 177.885 98.7308C177.641 98.2949 177.295 97.9423 176.846 97.6731C176.41 97.4038 175.884 97.2692 175.268 97.2692C174.55 97.2692 173.928 97.4167 173.402 97.7115C172.876 97.9936 172.472 98.4167 172.19 98.9808C171.907 99.5449 171.766 100.244 171.766 101.077C171.766 101.872 171.92 102.564 172.228 103.154C172.536 103.731 172.972 104.179 173.536 104.5C174.114 104.821 174.806 104.981 175.615 104.981C176.089 104.981 176.557 104.904 177.019 104.75C177.494 104.583 178.013 104.263 178.578 103.788L179.328 104.827C179.033 105.122 178.68 105.385 178.27 105.615C177.859 105.833 177.41 106.013 176.923 106.154C176.436 106.282 175.935 106.346 175.422 106.346Z" fill="#252C58"/>
<path d="M55.2233 174.615V162.615H51.375V161.154H60.7264V162.615H56.7242V174.615H55.2233Z" fill="#252C58"/>
<path d="M65.2157 174.808C64.2151 174.808 63.3236 174.583 62.5411 174.135C61.7715 173.686 61.1621 173.064 60.7132 172.269C60.277 171.474 60.059 170.571 60.059 169.558C60.059 168.558 60.277 167.667 60.7132 166.885C61.1621 166.103 61.7715 165.487 62.5411 165.038C63.3236 164.59 64.2151 164.365 65.2157 164.365C66.2034 164.365 67.0821 164.59 67.8518 165.038C68.6343 165.487 69.2436 166.103 69.6797 166.885C70.1287 167.667 70.3532 168.558 70.3532 169.558C70.3532 170.571 70.1287 171.474 69.6797 172.269C69.2436 173.064 68.6343 173.686 67.8518 174.135C67.0821 174.583 66.2034 174.808 65.2157 174.808ZM65.2157 173.442C65.9212 173.442 66.5498 173.276 67.1014 172.942C67.653 172.596 68.0827 172.135 68.3906 171.558C68.6984 170.968 68.8524 170.301 68.8524 169.558C68.8524 168.814 68.6984 168.154 68.3906 167.577C68.0827 167 67.653 166.551 67.1014 166.231C66.5498 165.897 65.9212 165.731 65.2157 165.731C64.5102 165.731 63.8752 165.897 63.3108 166.231C62.7592 166.551 62.3231 167.006 62.0024 167.596C61.6945 168.173 61.547 168.827 61.5598 169.558C61.547 170.301 61.6945 170.968 62.0024 171.558C62.3231 172.135 62.7592 172.596 63.3108 172.942C63.8752 173.276 64.5102 173.442 65.2157 173.442Z" fill="#252C58"/>
<path d="M76.5379 174.808C75.6271 174.808 74.8061 174.583 74.0749 174.135C73.3566 173.686 72.7858 173.071 72.3624 172.288C71.952 171.494 71.7467 170.596 71.7467 169.596C71.7467 168.583 71.9584 167.686 72.3817 166.904C72.805 166.109 73.3758 165.487 74.0942 165.038C74.8125 164.59 75.6207 164.365 76.5186 164.365C77.0189 164.365 77.4999 164.442 77.9617 164.596C78.4364 164.75 78.8597 164.968 79.2317 165.25C79.6037 165.519 79.9116 165.833 80.1553 166.192C80.399 166.538 80.5465 166.904 80.5978 167.288L80.1553 167.135V160.385H81.5984V174.615H80.1745L80.136 172.115L80.5016 171.981C80.4503 172.34 80.3028 172.692 80.0591 173.038C79.8282 173.372 79.5331 173.673 79.174 173.942C78.8148 174.212 78.4043 174.423 77.9425 174.577C77.4935 174.731 77.0253 174.808 76.5379 174.808ZM76.7495 173.481C77.4166 173.481 78.0131 173.314 78.539 172.981C79.0649 172.647 79.4754 172.186 79.7704 171.596C80.0783 171.006 80.2323 170.333 80.2323 169.577C80.2323 168.821 80.0783 168.154 79.7704 167.577C79.4754 166.987 79.0649 166.526 78.539 166.192C78.0131 165.846 77.4166 165.673 76.7495 165.673C76.0568 165.673 75.4475 165.846 74.9216 166.192C74.4085 166.526 73.998 166.987 73.6901 167.577C73.3951 168.154 73.2476 168.821 73.2476 169.577C73.2476 170.321 73.3951 170.987 73.6901 171.577C73.9852 172.167 74.3956 172.635 74.9216 172.981C75.4475 173.314 76.0568 173.481 76.7495 173.481Z" fill="#252C58"/>
<path d="M88.3348 174.808C87.4625 174.808 86.6736 174.583 85.968 174.135C85.2625 173.673 84.7045 173.051 84.294 172.269C83.8835 171.474 83.6783 170.577 83.6783 169.577C83.6783 168.564 83.8899 167.667 84.3133 166.885C84.7366 166.103 85.301 165.487 86.0065 165.038C86.7249 164.59 87.5266 164.365 88.4117 164.365C88.9377 164.365 89.4251 164.442 89.8741 164.596C90.3231 164.75 90.7207 164.968 91.0671 165.25C91.4262 165.519 91.7213 165.84 91.9522 166.212C92.1959 166.571 92.3627 166.962 92.4525 167.385L92.0291 167.173L92.0869 164.577H93.53V174.615H92.0676V172.154L92.4525 171.904C92.3627 172.288 92.1895 172.66 91.9329 173.019C91.6764 173.365 91.3621 173.673 90.9901 173.942C90.6309 174.212 90.2204 174.423 89.7586 174.577C89.3097 174.731 88.835 174.808 88.3348 174.808ZM88.6619 173.423C89.3289 173.423 89.9254 173.263 90.4513 172.942C90.9773 172.609 91.3877 172.154 91.6828 171.577C91.9907 170.987 92.1446 170.321 92.1446 169.577C92.1446 168.833 91.9907 168.173 91.6828 167.596C91.3877 167.019 90.9773 166.564 90.4513 166.231C89.9254 165.897 89.3289 165.731 88.6619 165.731C87.982 165.731 87.3791 165.897 86.8531 166.231C86.34 166.564 85.9296 167.019 85.6217 167.596C85.3267 168.173 85.1791 168.833 85.1791 169.577C85.1791 170.308 85.3267 170.968 85.6217 171.558C85.9167 172.135 86.3272 172.59 86.8531 172.923C87.3791 173.256 87.982 173.423 88.6619 173.423Z" fill="#252C58"/>
<path d="M97.8093 179.038L99.7527 174.308L99.8874 175.673L94.8461 164.577H96.4816L99.9258 172.269C100.028 172.474 100.131 172.718 100.234 173C100.336 173.269 100.433 173.538 100.522 173.808L99.9836 173.75C100.073 173.532 100.157 173.308 100.234 173.077C100.324 172.846 100.407 172.622 100.484 172.404L103.505 164.577H105.16L101.1 174.615L99.3678 179.038H97.8093Z" fill="#252C58"/>
<path d="M106.542 164.962L106.003 164.269C106.426 164.051 106.766 163.808 107.023 163.538C107.279 163.269 107.408 163.013 107.408 162.769C107.408 162.615 107.363 162.474 107.273 162.346C107.183 162.205 107.055 162.064 106.888 161.923C106.696 161.769 106.554 161.622 106.465 161.481C106.375 161.34 106.33 161.192 106.33 161.038C106.33 160.769 106.42 160.558 106.599 160.404C106.779 160.237 107.016 160.154 107.311 160.154C107.619 160.154 107.889 160.231 108.119 160.385C108.35 160.538 108.53 160.756 108.658 161.038C108.799 161.308 108.87 161.628 108.87 162C108.87 162.321 108.812 162.628 108.697 162.923C108.594 163.205 108.44 163.474 108.235 163.731C108.042 163.974 107.799 164.205 107.504 164.423C107.222 164.628 106.901 164.808 106.542 164.962Z" fill="#252C58"/>
<path d="M114.57 174.808C113.711 174.808 112.941 174.647 112.261 174.327C111.581 174.006 111.043 173.583 110.645 173.058L111.665 172.173C112.037 172.622 112.473 172.962 112.973 173.192C113.486 173.423 114.057 173.538 114.686 173.538C115.006 173.538 115.295 173.506 115.552 173.442C115.808 173.365 116.033 173.256 116.225 173.115C116.418 172.974 116.565 172.808 116.668 172.615C116.77 172.423 116.822 172.212 116.822 171.981C116.822 171.558 116.636 171.205 116.264 170.923C116.097 170.808 115.86 170.692 115.552 170.577C115.244 170.449 114.872 170.327 114.436 170.212C113.717 170.006 113.121 169.801 112.646 169.596C112.172 169.378 111.8 169.128 111.53 168.846C111.338 168.615 111.19 168.365 111.088 168.096C110.998 167.827 110.953 167.532 110.953 167.212C110.953 166.801 111.036 166.423 111.203 166.077C111.383 165.731 111.626 165.429 111.934 165.173C112.255 164.904 112.627 164.705 113.05 164.577C113.486 164.436 113.955 164.365 114.455 164.365C114.93 164.365 115.398 164.429 115.86 164.558C116.321 164.686 116.751 164.872 117.149 165.115C117.546 165.359 117.886 165.647 118.169 165.981L117.283 166.942C117.04 166.686 116.77 166.455 116.475 166.25C116.18 166.045 115.866 165.885 115.532 165.769C115.212 165.654 114.878 165.596 114.532 165.596C114.224 165.596 113.935 165.635 113.666 165.712C113.409 165.788 113.185 165.897 112.993 166.038C112.813 166.167 112.672 166.327 112.569 166.519C112.479 166.712 112.435 166.923 112.435 167.154C112.435 167.346 112.473 167.519 112.55 167.673C112.627 167.827 112.736 167.962 112.877 168.077C113.057 168.218 113.307 168.353 113.628 168.481C113.961 168.596 114.372 168.718 114.859 168.846C115.423 169 115.898 169.16 116.283 169.327C116.68 169.481 117.008 169.667 117.264 169.885C117.611 170.141 117.854 170.436 117.995 170.769C118.149 171.103 118.226 171.481 118.226 171.904C118.226 172.468 118.066 172.968 117.745 173.404C117.437 173.84 117.008 174.186 116.456 174.442C115.904 174.686 115.276 174.808 114.57 174.808Z" fill="#252C58"/>
<path d="M126.458 174.615V161.154H127.958V173.154H134.424V174.615H126.458Z" fill="#252C58"/>
<path d="M140.829 174.808C139.828 174.808 138.937 174.59 138.154 174.154C137.384 173.718 136.781 173.109 136.345 172.327C135.909 171.545 135.691 170.647 135.691 169.635C135.691 168.853 135.813 168.147 136.057 167.519C136.3 166.878 136.64 166.321 137.077 165.846C137.525 165.372 138.058 165.006 138.674 164.75C139.289 164.481 139.956 164.346 140.675 164.346C141.355 164.346 141.97 164.468 142.522 164.712C143.086 164.955 143.567 165.295 143.965 165.731C144.375 166.154 144.683 166.66 144.889 167.25C145.094 167.84 145.184 168.487 145.158 169.192L145.139 169.865H136.769L136.557 168.654H144.042L143.696 168.981V168.519C143.67 168.058 143.535 167.615 143.292 167.192C143.048 166.756 142.701 166.404 142.253 166.135C141.816 165.865 141.29 165.731 140.675 165.731C139.956 165.731 139.334 165.878 138.808 166.173C138.282 166.455 137.878 166.878 137.596 167.442C137.314 168.006 137.173 168.705 137.173 169.538C137.173 170.333 137.327 171.026 137.635 171.615C137.942 172.192 138.379 172.641 138.943 172.962C139.52 173.282 140.213 173.442 141.021 173.442C141.496 173.442 141.964 173.365 142.426 173.212C142.9 173.045 143.42 172.724 143.984 172.25L144.735 173.288C144.44 173.583 144.087 173.846 143.676 174.077C143.266 174.295 142.817 174.474 142.329 174.615C141.842 174.744 141.342 174.808 140.829 174.808Z" fill="#252C58"/>
<path d="M151.133 174.808C150.261 174.808 149.472 174.583 148.766 174.135C148.061 173.673 147.503 173.051 147.092 172.269C146.682 171.474 146.476 170.577 146.476 169.577C146.476 168.564 146.688 167.667 147.111 166.885C147.535 166.103 148.099 165.487 148.805 165.038C149.523 164.59 150.325 164.365 151.21 164.365C151.736 164.365 152.223 164.442 152.672 164.596C153.121 164.75 153.519 164.968 153.865 165.25C154.224 165.519 154.519 165.84 154.75 166.212C154.994 166.571 155.161 166.962 155.251 167.385L154.827 167.173L154.885 164.577H156.328V174.615H154.866V172.154L155.251 171.904C155.161 172.288 154.988 172.66 154.731 173.019C154.475 173.365 154.16 173.673 153.788 173.942C153.429 174.212 153.019 174.423 152.557 174.577C152.108 174.731 151.633 174.808 151.133 174.808ZM151.46 173.423C152.127 173.423 152.724 173.263 153.25 172.942C153.775 172.609 154.186 172.154 154.481 171.577C154.789 170.987 154.943 170.321 154.943 169.577C154.943 168.833 154.789 168.173 154.481 167.596C154.186 167.019 153.775 166.564 153.25 166.231C152.724 165.897 152.127 165.731 151.46 165.731C150.78 165.731 150.177 165.897 149.651 166.231C149.138 166.564 148.728 167.019 148.42 167.596C148.125 168.173 147.977 168.833 147.977 169.577C147.977 170.308 148.125 170.968 148.42 171.558C148.715 172.135 149.125 172.59 149.651 172.923C150.177 173.256 150.78 173.423 151.46 173.423Z" fill="#252C58"/>
<path d="M163.219 174.808C162.308 174.808 161.487 174.583 160.756 174.135C160.038 173.686 159.467 173.071 159.043 172.288C158.633 171.494 158.428 170.596 158.428 169.596C158.428 168.583 158.639 167.686 159.063 166.904C159.486 166.109 160.057 165.487 160.775 165.038C161.494 164.59 162.302 164.365 163.2 164.365C163.7 164.365 164.181 164.442 164.643 164.596C165.117 164.75 165.541 164.968 165.913 165.25C166.285 165.519 166.593 165.833 166.836 166.192C167.08 166.538 167.228 166.904 167.279 167.288L166.836 167.135V160.385H168.279V174.615H166.856L166.817 172.115L167.183 171.981C167.131 172.34 166.984 172.692 166.74 173.038C166.509 173.372 166.214 173.673 165.855 173.942C165.496 174.212 165.085 174.423 164.624 174.577C164.175 174.731 163.706 174.808 163.219 174.808ZM163.431 173.481C164.098 173.481 164.694 173.314 165.22 172.981C165.746 172.647 166.156 172.186 166.451 171.596C166.759 171.006 166.913 170.333 166.913 169.577C166.913 168.821 166.759 168.154 166.451 167.577C166.156 166.987 165.746 166.526 165.22 166.192C164.694 165.846 164.098 165.673 163.431 165.673C162.738 165.673 162.129 165.846 161.603 166.192C161.089 166.526 160.679 166.987 160.371 167.577C160.076 168.154 159.929 168.821 159.929 169.577C159.929 170.321 160.076 170.987 160.371 171.577C160.666 172.167 161.077 172.635 161.603 172.981C162.129 173.314 162.738 173.481 163.431 173.481Z" fill="#252C58"/>
<path d="M176.156 169.981V168.538H181.582V169.981H176.156Z" fill="#252C58"/>
<path d="M192.97 174.808C192.021 174.808 191.181 174.596 190.449 174.173C189.731 173.737 189.058 173 188.429 171.962L189.661 171.192C190.007 171.744 190.36 172.186 190.719 172.519C191.091 172.84 191.469 173.071 191.854 173.212C192.239 173.353 192.649 173.423 193.086 173.423C193.624 173.423 194.118 173.295 194.567 173.038C195.016 172.769 195.375 172.41 195.645 171.962C195.914 171.5 196.049 170.987 196.049 170.423C196.049 169.846 195.927 169.34 195.683 168.904C195.439 168.468 195.1 168.128 194.663 167.885C194.24 167.641 193.746 167.519 193.182 167.519C192.977 167.519 192.752 167.545 192.508 167.596C192.277 167.635 192.021 167.718 191.739 167.846C191.469 167.962 191.174 168.135 190.854 168.365L190.411 167.173L195.164 162L195.491 162.558H189.372V161.154H196.645L197.03 161.923L192.412 166.846L192.027 166.462C192.194 166.359 192.393 166.276 192.624 166.212C192.855 166.135 193.086 166.096 193.316 166.096C193.907 166.096 194.458 166.205 194.971 166.423C195.484 166.641 195.927 166.949 196.299 167.346C196.684 167.731 196.985 168.179 197.203 168.692C197.421 169.205 197.53 169.763 197.53 170.365C197.53 171.199 197.332 171.955 196.934 172.635C196.536 173.301 195.991 173.833 195.298 174.231C194.606 174.615 193.83 174.808 192.97 174.808Z" fill="#252C58"/>
<path d="M51.9076 191.538V184H52.7481V190.72H56.3686V191.538H51.9076Z" fill="#252C58"/>
<path d="M59.6752 191.646C59.1868 191.646 58.745 191.521 58.3499 191.269C57.9548 191.011 57.6423 190.663 57.4124 190.225C57.1826 189.779 57.0676 189.277 57.0676 188.717C57.0676 188.15 57.1861 187.647 57.4232 187.209C57.6603 186.771 57.9763 186.427 58.3714 186.175C58.7737 185.924 59.2227 185.798 59.7183 185.798C60.0129 185.798 60.2858 185.842 60.5373 185.928C60.7887 186.014 61.0114 186.136 61.2053 186.294C61.4065 186.445 61.5717 186.624 61.701 186.832C61.8375 187.033 61.9309 187.252 61.9811 187.489L61.7441 187.371L61.7764 185.917H62.5846V191.538H61.7656V190.16L61.9811 190.02C61.9309 190.235 61.8339 190.444 61.6902 190.645C61.5465 190.838 61.3705 191.011 61.1622 191.162C60.9611 191.312 60.7312 191.431 60.4726 191.517C60.2212 191.603 59.9554 191.646 59.6752 191.646ZM59.8584 190.871C60.232 190.871 60.566 190.781 60.8605 190.602C61.155 190.415 61.3849 190.16 61.5501 189.837C61.7225 189.507 61.8087 189.133 61.8087 188.717C61.8087 188.301 61.7225 187.931 61.5501 187.608C61.3849 187.285 61.155 187.03 60.8605 186.843C60.566 186.656 60.232 186.563 59.8584 186.563C59.4777 186.563 59.1401 186.656 58.8455 186.843C58.5582 187.03 58.3283 187.285 58.1559 187.608C57.9907 187.931 57.9081 188.301 57.9081 188.717C57.9081 189.126 57.9907 189.496 58.1559 189.826C58.3211 190.149 58.551 190.404 58.8455 190.591C59.1401 190.777 59.4777 190.871 59.8584 190.871Z" fill="#252C58"/>
<path d="M66.0016 191.646C65.5203 191.646 65.0893 191.556 64.7086 191.377C64.3278 191.197 64.0261 190.961 63.8034 190.666L64.3745 190.171C64.5828 190.422 64.8271 190.612 65.1072 190.742C65.3946 190.871 65.7142 190.935 66.0662 190.935C66.2458 190.935 66.4075 190.917 66.5511 190.882C66.6948 190.838 66.8205 190.777 66.9283 190.698C67.036 190.619 67.1186 190.526 67.1761 190.418C67.2336 190.311 67.2623 190.192 67.2623 190.063C67.2623 189.826 67.1581 189.629 66.9498 189.471C66.8564 189.406 66.7235 189.342 66.5511 189.277C66.3787 189.205 66.1704 189.137 65.9262 189.072C65.5239 188.957 65.1898 188.843 64.9241 188.728C64.6583 188.606 64.45 188.466 64.2991 188.308C64.1913 188.178 64.1087 188.038 64.0513 187.888C64.001 187.737 63.9758 187.572 63.9758 187.392C63.9758 187.163 64.0225 186.951 64.1159 186.757C64.2165 186.563 64.353 186.394 64.5254 186.251C64.705 186.1 64.9133 185.989 65.1503 185.917C65.3946 185.838 65.6568 185.798 65.9369 185.798C66.2027 185.798 66.4649 185.834 66.7235 185.906C66.9821 185.978 67.2228 186.082 67.4455 186.218C67.6682 186.355 67.8585 186.516 68.0166 186.703L67.5209 187.242C67.3844 187.098 67.2336 186.969 67.0683 186.854C66.9031 186.739 66.7271 186.649 66.5404 186.585C66.3608 186.52 66.174 186.488 65.98 186.488C65.8076 186.488 65.646 186.509 65.4952 186.552C65.3515 186.595 65.2258 186.656 65.118 186.735C65.0174 186.807 64.9384 186.897 64.881 187.005C64.8307 187.112 64.8055 187.231 64.8055 187.36C64.8055 187.468 64.8271 187.565 64.8702 187.651C64.9133 187.737 64.9743 187.812 65.0534 187.877C65.1539 187.956 65.294 188.031 65.4736 188.103C65.6604 188.168 65.8902 188.236 66.1632 188.308C66.4793 188.394 66.7451 188.484 66.9606 188.577C67.1833 188.663 67.3665 188.767 67.5101 188.889C67.7041 189.033 67.8406 189.198 67.9196 189.385C68.0058 189.571 68.0489 189.783 68.0489 190.02C68.0489 190.336 67.9591 190.616 67.7795 190.86C67.6071 191.104 67.3665 191.298 67.0576 191.442C66.7487 191.578 66.3967 191.646 66.0016 191.646Z" fill="#252C58"/>
<path d="M70.091 191.538V184.442H70.8991V191.538H70.091ZM68.8195 186.692V185.917H72.3215V186.692H68.8195Z" fill="#252C58"/>
<path d="M76.6571 191.538V184H77.476L80.3746 188.706L79.9866 188.695L82.9175 184H83.6826V191.538H82.8421V188.092C82.8421 187.446 82.8529 186.865 82.8744 186.348C82.896 185.831 82.9355 185.317 82.993 184.808L83.1438 185.109L80.4392 189.352H79.8573L77.2282 185.163L77.3467 184.808C77.4042 185.289 77.4437 185.784 77.4652 186.294C77.4868 186.796 77.4976 187.396 77.4976 188.092V191.538H76.6571Z" fill="#252C58"/>
<path d="M88.0724 191.646C87.5121 191.646 87.0128 191.521 86.5746 191.269C86.1436 191.018 85.8024 190.67 85.551 190.225C85.3067 189.779 85.1846 189.273 85.1846 188.706C85.1846 188.146 85.3067 187.647 85.551 187.209C85.8024 186.771 86.1436 186.427 86.5746 186.175C87.0128 185.924 87.5121 185.798 88.0724 185.798C88.6255 185.798 89.1176 185.924 89.5486 186.175C89.9868 186.427 90.328 186.771 90.5723 187.209C90.8237 187.647 90.9494 188.146 90.9494 188.706C90.9494 189.273 90.8237 189.779 90.5723 190.225C90.328 190.67 89.9868 191.018 89.5486 191.269C89.1176 191.521 88.6255 191.646 88.0724 191.646ZM88.0724 190.882C88.4675 190.882 88.8195 190.788 89.1284 190.602C89.4373 190.408 89.6779 190.149 89.8503 189.826C90.0227 189.496 90.1089 189.123 90.1089 188.706C90.1089 188.29 90.0227 187.92 89.8503 187.597C89.6779 187.274 89.4373 187.023 89.1284 186.843C88.8195 186.656 88.4675 186.563 88.0724 186.563C87.6773 186.563 87.3217 186.656 87.0056 186.843C86.6968 187.023 86.4525 187.277 86.2729 187.608C86.1005 187.931 86.0179 188.297 86.0251 188.706C86.0179 189.123 86.1005 189.496 86.2729 189.826C86.4525 190.149 86.6968 190.408 87.0056 190.602C87.3217 190.788 87.6773 190.882 88.0724 190.882Z" fill="#252C58"/>
<path d="M92.1284 191.538V185.917H92.9258L92.9581 187.091L92.8288 187.145C92.9007 186.901 93.0407 186.678 93.2491 186.477C93.4574 186.276 93.7052 186.114 93.9926 185.992C94.2871 185.863 94.5888 185.798 94.8977 185.798C95.3143 185.798 95.6627 185.881 95.9429 186.046C96.2231 186.211 96.435 186.466 96.5786 186.811C96.7223 187.155 96.7941 187.593 96.7941 188.125V191.538H95.9752V188.168C95.9752 187.794 95.9249 187.489 95.8244 187.252C95.731 187.008 95.5837 186.829 95.3826 186.714C95.1814 186.599 94.9336 186.545 94.6391 186.552C94.3948 186.552 94.1686 186.595 93.9602 186.682C93.7519 186.761 93.5723 186.872 93.4215 187.015C93.2706 187.159 93.1521 187.324 93.0659 187.511C92.9797 187.697 92.9366 187.898 92.9366 188.114V191.538H92.5379C92.4876 191.538 92.4302 191.538 92.3655 191.538C92.3008 191.538 92.2218 191.538 92.1284 191.538Z" fill="#252C58"/>
<path d="M99.1127 191.538V184.442H99.9208V191.538H99.1127ZM97.8412 186.692V185.917H101.343V186.692H97.8412Z" fill="#252C58"/>
<path d="M102.336 191.538V183.569H103.144V187.145L102.982 187.306C103.061 187.012 103.208 186.753 103.424 186.531C103.639 186.301 103.891 186.122 104.178 185.992C104.473 185.863 104.771 185.798 105.072 185.798C105.503 185.798 105.863 185.881 106.15 186.046C106.437 186.211 106.649 186.466 106.786 186.811C106.929 187.155 107.001 187.593 107.001 188.125V191.538H106.182V188.168C106.182 187.794 106.132 187.489 106.031 187.252C105.938 187.008 105.791 186.829 105.59 186.714C105.388 186.599 105.137 186.545 104.835 186.552C104.598 186.552 104.376 186.595 104.167 186.682C103.959 186.761 103.779 186.872 103.629 187.015C103.478 187.159 103.359 187.324 103.273 187.511C103.187 187.697 103.144 187.898 103.144 188.114V191.538H102.745C102.695 191.538 102.637 191.538 102.573 191.538C102.508 191.538 102.429 191.538 102.336 191.538Z" fill="#252C58"/>
<path d="M111.381 188.943V188.135H114.419V188.943H111.381Z" fill="#252C58"/>
<path d="M120.797 191.646C120.265 191.646 119.794 191.528 119.385 191.291C118.983 191.047 118.606 190.634 118.254 190.052L118.943 189.622C119.137 189.93 119.335 190.178 119.536 190.365C119.744 190.544 119.956 190.673 120.172 190.752C120.387 190.831 120.617 190.871 120.861 190.871C121.163 190.871 121.439 190.799 121.691 190.655C121.942 190.505 122.143 190.304 122.294 190.052C122.445 189.794 122.521 189.507 122.521 189.191C122.521 188.868 122.452 188.584 122.316 188.34C122.179 188.096 121.989 187.906 121.745 187.769C121.508 187.633 121.231 187.565 120.915 187.565C120.8 187.565 120.674 187.579 120.538 187.608C120.409 187.629 120.265 187.676 120.107 187.748C119.956 187.812 119.791 187.909 119.611 188.038L119.363 187.371L122.025 184.474L122.208 184.786H118.782V184H122.855L123.07 184.431L120.484 187.188L120.269 186.972C120.362 186.915 120.473 186.868 120.603 186.832C120.732 186.789 120.861 186.768 120.99 186.768C121.321 186.768 121.63 186.829 121.917 186.951C122.204 187.073 122.452 187.245 122.661 187.468C122.876 187.683 123.045 187.934 123.167 188.222C123.289 188.509 123.35 188.821 123.35 189.158C123.35 189.625 123.239 190.049 123.016 190.429C122.794 190.803 122.488 191.101 122.1 191.323C121.712 191.538 121.278 191.646 120.797 191.646Z" fill="#252C58"/>
<path d="M124.743 191.538L124.485 190.914L127.028 188.06C127.15 187.924 127.276 187.769 127.405 187.597C127.541 187.425 127.667 187.245 127.782 187.058C127.904 186.865 128.001 186.674 128.073 186.488C128.145 186.301 128.181 186.118 128.181 185.938C128.181 185.673 128.123 185.45 128.008 185.271C127.893 185.084 127.728 184.941 127.513 184.84C127.304 184.739 127.06 184.689 126.78 184.689C126.536 184.689 126.295 184.747 126.058 184.862C125.821 184.976 125.605 185.152 125.412 185.389C125.218 185.626 125.067 185.928 124.959 186.294L124.291 185.895C124.42 185.457 124.611 185.091 124.862 184.797C125.113 184.495 125.412 184.269 125.756 184.118C126.101 183.968 126.471 183.892 126.866 183.892C127.283 183.892 127.656 183.978 127.987 184.151C128.317 184.316 128.579 184.553 128.773 184.862C128.967 185.163 129.064 185.511 129.064 185.906C129.064 186.078 129.043 186.251 129 186.423C128.964 186.595 128.906 186.768 128.827 186.94C128.748 187.112 128.651 187.288 128.536 187.468C128.429 187.647 128.299 187.83 128.148 188.017C128.005 188.204 127.843 188.397 127.664 188.598L125.498 191.011L125.368 190.731H129.301V191.538H124.743Z" fill="#252C58"/>
<path d="M133.774 191.538V184H134.615V190.72H138.235V191.538H133.774Z" fill="#252C58"/>
<path d="M141.822 191.646C141.262 191.646 140.763 191.524 140.325 191.28C139.894 191.036 139.556 190.695 139.312 190.257C139.067 189.819 138.945 189.316 138.945 188.749C138.945 188.311 139.014 187.916 139.15 187.565C139.286 187.206 139.477 186.893 139.721 186.628C139.973 186.362 140.271 186.157 140.615 186.014C140.96 185.863 141.334 185.788 141.736 185.788C142.117 185.788 142.462 185.856 142.77 185.992C143.087 186.129 143.356 186.319 143.579 186.563C143.809 186.8 143.981 187.084 144.096 187.414C144.211 187.744 144.261 188.107 144.247 188.502L144.236 188.878H139.549L139.43 188.2H143.622L143.428 188.383V188.125C143.413 187.866 143.338 187.618 143.202 187.382C143.065 187.137 142.871 186.94 142.62 186.789C142.375 186.638 142.081 186.563 141.736 186.563C141.334 186.563 140.985 186.646 140.691 186.811C140.396 186.969 140.17 187.206 140.012 187.522C139.854 187.837 139.775 188.229 139.775 188.695C139.775 189.141 139.861 189.528 140.034 189.858C140.206 190.182 140.45 190.433 140.766 190.612C141.09 190.792 141.477 190.882 141.93 190.882C142.196 190.882 142.458 190.838 142.717 190.752C142.982 190.659 143.273 190.479 143.589 190.214L144.01 190.795C143.844 190.961 143.647 191.108 143.417 191.237C143.187 191.359 142.936 191.459 142.663 191.538C142.39 191.61 142.11 191.646 141.822 191.646Z" fill="#252C58"/>
<path d="M147.593 191.646C147.104 191.646 146.662 191.521 146.267 191.269C145.872 191.011 145.56 190.663 145.33 190.225C145.1 189.779 144.985 189.277 144.985 188.717C144.985 188.15 145.104 187.647 145.341 187.209C145.578 186.771 145.894 186.427 146.289 186.175C146.691 185.924 147.14 185.798 147.636 185.798C147.93 185.798 148.203 185.842 148.455 185.928C148.706 186.014 148.929 186.136 149.123 186.294C149.324 186.445 149.489 186.624 149.618 186.832C149.755 187.033 149.848 187.252 149.899 187.489L149.662 187.371L149.694 185.917H150.502V191.538H149.683V190.16L149.899 190.02C149.848 190.235 149.751 190.444 149.608 190.645C149.464 190.838 149.288 191.011 149.08 191.162C148.879 191.312 148.649 191.431 148.39 191.517C148.139 191.603 147.873 191.646 147.593 191.646ZM147.776 190.871C148.149 190.871 148.483 190.781 148.778 190.602C149.072 190.415 149.302 190.16 149.468 189.837C149.64 189.507 149.726 189.133 149.726 188.717C149.726 188.301 149.64 187.931 149.468 187.608C149.302 187.285 149.072 187.03 148.778 186.843C148.483 186.656 148.149 186.563 147.776 186.563C147.395 186.563 147.058 186.656 146.763 186.843C146.476 187.03 146.246 187.285 146.073 187.608C145.908 187.931 145.826 188.301 145.826 188.717C145.826 189.126 145.908 189.496 146.073 189.826C146.239 190.149 146.468 190.404 146.763 190.591C147.058 190.777 147.395 190.871 147.776 190.871Z" fill="#252C58"/>
<path d="M154.361 191.646C153.851 191.646 153.391 191.521 152.982 191.269C152.579 191.018 152.26 190.673 152.023 190.235C151.793 189.79 151.678 189.288 151.678 188.728C151.678 188.161 151.796 187.658 152.033 187.22C152.27 186.775 152.59 186.427 152.992 186.175C153.395 185.924 153.847 185.798 154.35 185.798C154.63 185.798 154.9 185.842 155.158 185.928C155.424 186.014 155.661 186.136 155.869 186.294C156.078 186.445 156.25 186.621 156.387 186.822C156.523 187.015 156.606 187.22 156.634 187.435L156.387 187.349V183.569H157.195V191.538H156.397L156.376 190.138L156.581 190.063C156.552 190.264 156.469 190.462 156.333 190.655C156.203 190.842 156.038 191.011 155.837 191.162C155.636 191.312 155.406 191.431 155.147 191.517C154.896 191.603 154.634 191.646 154.361 191.646ZM154.479 190.903C154.853 190.903 155.187 190.81 155.481 190.623C155.776 190.436 156.006 190.178 156.171 189.848C156.343 189.517 156.43 189.141 156.43 188.717C156.43 188.293 156.343 187.92 156.171 187.597C156.006 187.267 155.776 187.008 155.481 186.822C155.187 186.628 154.853 186.531 154.479 186.531C154.091 186.531 153.75 186.628 153.456 186.822C153.168 187.008 152.938 187.267 152.766 187.597C152.601 187.92 152.518 188.293 152.518 188.717C152.518 189.133 152.601 189.507 152.766 189.837C152.931 190.167 153.161 190.429 153.456 190.623C153.75 190.81 154.091 190.903 154.479 190.903Z" fill="#252C58"/>
<path d="M160.611 191.646C160.13 191.646 159.699 191.556 159.318 191.377C158.938 191.197 158.636 190.961 158.413 190.666L158.984 190.171C159.193 190.422 159.437 190.612 159.717 190.742C160.004 190.871 160.324 190.935 160.676 190.935C160.856 190.935 161.017 190.917 161.161 190.882C161.305 190.838 161.43 190.777 161.538 190.698C161.646 190.619 161.729 190.526 161.786 190.418C161.843 190.311 161.872 190.192 161.872 190.063C161.872 189.826 161.768 189.629 161.56 189.471C161.466 189.406 161.333 189.342 161.161 189.277C160.989 189.205 160.78 189.137 160.536 189.072C160.134 188.957 159.8 188.843 159.534 188.728C159.268 188.606 159.06 188.466 158.909 188.308C158.801 188.178 158.719 188.038 158.661 187.888C158.611 187.737 158.586 187.572 158.586 187.392C158.586 187.163 158.632 186.951 158.726 186.757C158.826 186.563 158.963 186.394 159.135 186.251C159.315 186.1 159.523 185.989 159.76 185.917C160.004 185.838 160.267 185.798 160.547 185.798C160.813 185.798 161.075 185.834 161.333 185.906C161.592 185.978 161.833 186.082 162.055 186.218C162.278 186.355 162.468 186.516 162.626 186.703L162.131 187.242C161.994 187.098 161.843 186.969 161.678 186.854C161.513 186.739 161.337 186.649 161.15 186.585C160.971 186.52 160.784 186.488 160.59 186.488C160.418 186.488 160.256 186.509 160.105 186.552C159.961 186.595 159.836 186.656 159.728 186.735C159.627 186.807 159.548 186.897 159.491 187.005C159.441 187.112 159.415 187.231 159.415 187.36C159.415 187.468 159.437 187.565 159.48 187.651C159.523 187.737 159.584 187.812 159.663 187.877C159.764 187.956 159.904 188.031 160.084 188.103C160.27 188.168 160.5 188.236 160.773 188.308C161.089 188.394 161.355 188.484 161.571 188.577C161.793 188.663 161.976 188.767 162.12 188.889C162.314 189.033 162.45 189.198 162.53 189.385C162.616 189.571 162.659 189.783 162.659 190.02C162.659 190.336 162.569 190.616 162.389 190.86C162.217 191.104 161.976 191.298 161.667 191.442C161.359 191.578 161.007 191.646 160.611 191.646Z" fill="#252C58"/>
<path d="M62.2919 71.0615C60.8295 71.0615 59.4842 70.8082 58.2558 70.3015C57.0274 69.7754 55.9648 69.0446 55.0678 68.1092C54.1709 67.1544 53.469 66.0338 52.962 64.7477C52.4746 63.4615 52.2309 62.0585 52.2309 60.5385C52.2309 59.0379 52.4746 57.6641 52.962 56.4169C53.469 55.1503 54.1807 54.0492 55.0971 53.1138C56.0135 52.159 57.0761 51.4282 58.285 50.9215C59.4939 50.4149 60.8198 50.1615 62.2627 50.1615C63.2181 50.1615 64.1637 50.3174 65.0996 50.6292C66.0355 50.9215 66.8935 51.3308 67.6734 51.8569C68.4728 52.3831 69.126 52.9872 69.6329 53.6692L68.0536 55.3062C67.5661 54.7215 67.0007 54.2149 66.3573 53.7862C65.7333 53.3574 65.0704 53.0262 64.3685 52.7923C63.6665 52.5585 62.9646 52.4415 62.2627 52.4415C61.1708 52.4415 60.1471 52.6462 59.1917 53.0554C58.2558 53.4451 57.4466 54.0005 56.7642 54.7215C56.0817 55.4426 55.5455 56.3 55.1556 57.2938C54.7851 58.2877 54.5999 59.3692 54.5999 60.5385C54.5999 61.7467 54.7851 62.8574 55.1556 63.8708C55.5455 64.8841 56.0915 65.761 56.7934 66.5015C57.5149 67.2226 58.3533 67.7877 59.3087 68.1969C60.2836 68.5867 61.3657 68.7815 62.5551 68.7815C63.2571 68.7815 63.959 68.6841 64.6609 68.4892C65.3629 68.2749 66.0063 67.9826 66.5912 67.6123C67.1762 67.2421 67.6734 66.8231 68.0828 66.3554L69.2527 68.2554C68.8043 68.801 68.1998 69.2882 67.4394 69.7169C66.6985 70.1262 65.8796 70.4574 64.9826 70.7108C64.0857 70.9446 63.1888 71.0615 62.2919 71.0615Z" fill="#252C58"/>
<path d="M78.6639 71.0615C77.3381 71.0615 76.1389 70.7205 75.0665 70.0385C73.9941 69.3369 73.146 68.3918 72.522 67.2031C71.8981 65.9949 71.5861 64.6308 71.5861 63.1108C71.5861 61.5713 71.9078 60.2072 72.5513 59.0185C73.1947 57.8297 74.0526 56.8944 75.125 56.2123C76.2169 55.5303 77.4355 55.1892 78.7809 55.1892C79.5803 55.1892 80.3213 55.3062 81.0037 55.54C81.6861 55.7738 82.2906 56.1051 82.817 56.5338C83.363 56.9431 83.8114 57.4303 84.1624 57.9954C84.5329 58.541 84.7863 59.1354 84.9228 59.7785L84.2794 59.4569L84.3671 55.5108H86.5607V70.7692H84.3379V67.0277L84.9228 66.6477C84.7863 67.2323 84.5231 67.7974 84.1332 68.3431C83.7432 68.8692 83.2655 69.3369 82.7 69.7462C82.1541 70.1554 81.5302 70.4769 80.8282 70.7108C80.1458 70.9446 79.4244 71.0615 78.6639 71.0615ZM79.1611 68.9569C80.175 68.9569 81.0817 68.7133 81.8811 68.2262C82.6805 67.7195 83.3045 67.0277 83.7529 66.1508C84.2209 65.2544 84.4549 64.241 84.4549 63.1108C84.4549 61.9805 84.2209 60.9769 83.7529 60.1C83.3045 59.2231 82.6805 58.5313 81.8811 58.0246C81.0817 57.5179 80.175 57.2646 79.1611 57.2646C78.1277 57.2646 77.2113 57.5179 76.4119 58.0246C75.632 58.5313 75.008 59.2231 74.5401 60.1C74.0916 60.9769 73.8674 61.9805 73.8674 63.1108C73.8674 64.2215 74.0916 65.2251 74.5401 66.1215C74.9885 66.9985 75.6125 67.6903 76.4119 68.1969C77.2113 68.7036 78.1277 68.9569 79.1611 68.9569Z" fill="#252C58"/>
<path d="M90.8049 70.7692V55.5108H92.9985L93.057 58.9892L92.6183 59.1354C92.7743 58.5508 93.0277 58.0246 93.3787 57.5569C93.7492 57.0697 94.1879 56.6508 94.6948 56.3C95.2018 55.9492 95.7575 55.6862 96.3619 55.5108C96.9663 55.3159 97.6 55.2185 98.263 55.2185C99.0624 55.2185 99.7741 55.3549 100.398 55.6277C101.041 55.881 101.578 56.3292 102.007 56.9723C102.455 57.5959 102.796 58.4241 103.03 59.4569L102.504 59.1938L102.709 58.6969C102.904 58.2487 103.186 57.82 103.557 57.4108C103.947 56.9821 104.385 56.6021 104.873 56.2708C105.38 55.9395 105.926 55.6862 106.511 55.5108C107.115 55.3159 107.729 55.2185 108.353 55.2185C109.426 55.2185 110.332 55.4523 111.073 55.92C111.814 56.3682 112.37 57.06 112.74 57.9954C113.13 58.9308 113.325 60.1195 113.325 61.5615V70.7692H111.073V61.6785C111.073 60.6651 110.947 59.8369 110.693 59.1938C110.44 58.5508 110.059 58.0733 109.552 57.7615C109.065 57.4303 108.441 57.2646 107.681 57.2646C107.018 57.2646 106.403 57.3815 105.838 57.6154C105.292 57.8297 104.814 58.1415 104.405 58.5508C104.015 58.9405 103.703 59.3887 103.469 59.8954C103.254 60.4021 103.147 60.9477 103.147 61.5323V70.7692H100.924V61.6492C100.924 60.6749 100.788 59.8662 100.515 59.2231C100.262 58.58 99.8813 58.0928 99.3744 57.7615C98.8674 57.4303 98.2435 57.2646 97.5025 57.2646C96.8591 57.2646 96.2644 57.3815 95.7185 57.6154C95.1725 57.8297 94.6948 58.1318 94.2854 58.5215C93.8954 58.9113 93.5834 59.3595 93.3494 59.8662C93.135 60.3728 93.0277 60.9185 93.0277 61.5031V70.7692H90.8049Z" fill="#252C58"/>
<path d="M117.482 77.2V55.5108H119.676L119.734 59.2231L119.325 59.2815C119.5 58.541 119.881 57.8687 120.465 57.2646C121.05 56.641 121.762 56.1441 122.601 55.7738C123.439 55.4036 124.326 55.2185 125.262 55.2185C126.627 55.2185 127.846 55.5595 128.918 56.2415C130.01 56.9236 130.877 57.859 131.521 59.0477C132.164 60.2364 132.486 61.6005 132.486 63.14C132.486 64.66 132.174 66.0144 131.55 67.2031C130.926 68.3918 130.068 69.3369 128.976 70.0385C127.885 70.7205 126.656 71.0615 125.291 71.0615C124.336 71.0615 123.429 70.8667 122.571 70.4769C121.713 70.0872 120.982 69.5805 120.378 68.9569C119.773 68.3138 119.374 67.6221 119.179 66.8815H119.705V77.2H117.482ZM124.94 68.9569C125.974 68.9569 126.89 68.7036 127.69 68.1969C128.489 67.6903 129.123 66.9985 129.591 66.1215C130.059 65.2446 130.293 64.2508 130.293 63.14C130.293 62.0097 130.059 61.0062 129.591 60.1292C129.123 59.2523 128.489 58.5605 127.69 58.0538C126.89 57.5472 125.974 57.2938 124.94 57.2938C123.907 57.2938 122.981 57.5472 122.162 58.0538C121.362 58.541 120.729 59.2231 120.261 60.1C119.793 60.9769 119.559 61.9805 119.559 63.1108C119.559 64.241 119.793 65.2446 120.261 66.1215C120.729 66.9985 121.362 67.6903 122.162 68.1969C122.981 68.7036 123.907 68.9569 124.94 68.9569Z" fill="#252C58"/>
<path d="M141.643 71.0615C140.317 71.0615 139.117 70.7205 138.045 70.0385C136.973 69.3369 136.125 68.3918 135.501 67.2031C134.877 65.9949 134.565 64.6308 134.565 63.1108C134.565 61.5713 134.886 60.2072 135.53 59.0185C136.173 57.8297 137.031 56.8944 138.104 56.2123C139.195 55.5303 140.414 55.1892 141.759 55.1892C142.559 55.1892 143.3 55.3062 143.982 55.54C144.665 55.7738 145.269 56.1051 145.796 56.5338C146.342 56.9431 146.79 57.4303 147.141 57.9954C147.511 58.541 147.765 59.1354 147.901 59.7785L147.258 59.4569L147.346 55.5108H149.539V70.7692H147.316V67.0277L147.901 66.6477C147.765 67.2323 147.502 67.7974 147.112 68.3431C146.722 68.8692 146.244 69.3369 145.679 69.7462C145.133 70.1554 144.509 70.4769 143.807 70.7108C143.124 70.9446 142.403 71.0615 141.643 71.0615ZM142.14 68.9569C143.154 68.9569 144.06 68.7133 144.86 68.2262C145.659 67.7195 146.283 67.0277 146.732 66.1508C147.199 65.2544 147.433 64.241 147.433 63.1108C147.433 61.9805 147.199 60.9769 146.732 60.1C146.283 59.2231 145.659 58.5313 144.86 58.0246C144.06 57.5179 143.154 57.2646 142.14 57.2646C141.106 57.2646 140.19 57.5179 139.39 58.0246C138.611 58.5313 137.987 59.2231 137.519 60.1C137.07 60.9769 136.846 61.9805 136.846 63.1108C136.846 64.2215 137.07 65.2251 137.519 66.1215C137.967 66.9985 138.591 67.6903 139.39 68.1969C140.19 68.7036 141.106 68.9569 142.14 68.9569Z" fill="#252C58"/>
<path d="M154.398 70.7692V55.5108H156.591V70.7692H154.398ZM155.48 52.2077C154.934 52.2077 154.515 52.0713 154.222 51.7985C153.949 51.5062 153.813 51.1164 153.813 50.6292C153.813 50.1421 153.959 49.7523 154.251 49.46C154.544 49.1677 154.953 49.0215 155.48 49.0215C156.006 49.0215 156.416 49.1677 156.708 49.46C157.001 49.7328 157.147 50.1226 157.147 50.6292C157.147 51.0969 157.001 51.4769 156.708 51.7692C156.416 52.0615 156.006 52.2077 155.48 52.2077Z" fill="#252C58"/>
<path d="M167.962 77.4923C166.831 77.4923 165.759 77.3169 164.745 76.9662C163.731 76.6154 162.893 76.1769 162.23 75.6508L163.107 73.8092C163.497 74.121 163.946 74.3938 164.453 74.6277C164.979 74.881 165.544 75.0759 166.149 75.2123C166.753 75.3682 167.368 75.4462 167.991 75.4462C169.122 75.4462 170.078 75.2318 170.858 74.8031C171.657 74.3939 172.262 73.78 172.671 72.9615C173.1 72.1431 173.314 71.1297 173.314 69.9215V66.9985L173.665 66.9108C173.49 67.6513 173.11 68.3431 172.525 68.9862C171.94 69.6097 171.228 70.1164 170.39 70.5061C169.551 70.8764 168.664 71.0615 167.728 71.0615C166.305 71.0615 165.028 70.7205 163.897 70.0385C162.785 69.3564 161.908 68.421 161.265 67.2323C160.621 66.0241 160.299 64.66 160.299 63.14C160.299 61.6005 160.621 60.2364 161.265 59.0477C161.928 57.8395 162.815 56.8944 163.926 56.2123C165.038 55.5303 166.285 55.1892 167.67 55.1892C168.274 55.1892 168.859 55.2672 169.425 55.4231C169.99 55.5595 170.507 55.7641 170.975 56.0369C171.462 56.3097 171.901 56.6215 172.291 56.9723C172.681 57.3231 173.002 57.7031 173.256 58.1123C173.529 58.5215 173.724 58.9405 173.841 59.3692L173.227 59.2815L173.314 55.5108H175.508V69.8338C175.508 71.0615 175.333 72.1431 174.982 73.0785C174.631 74.0333 174.114 74.8323 173.431 75.4754C172.769 76.138 171.969 76.6349 171.033 76.9662C170.117 77.3169 169.093 77.4923 167.962 77.4923ZM167.991 68.9569C169.025 68.9569 169.941 68.7133 170.741 68.2262C171.56 67.7195 172.203 67.0277 172.671 66.1508C173.139 65.2738 173.373 64.2605 173.373 63.1108C173.373 61.9805 173.139 60.9769 172.671 60.1C172.223 59.2231 171.589 58.5313 170.77 58.0246C169.951 57.5179 169.025 57.2646 167.991 57.2646C166.939 57.2646 166.003 57.5179 165.184 58.0246C164.384 58.5313 163.751 59.2231 163.283 60.1C162.815 60.9769 162.581 61.9805 162.581 63.1108C162.581 64.2215 162.805 65.2251 163.253 66.1215C163.721 66.9985 164.355 67.6903 165.154 68.1969C165.973 68.7036 166.919 68.9569 167.991 68.9569Z" fill="#252C58"/>
<path d="M179.775 70.7692V55.5108H181.94L182.027 58.6969L181.676 58.8431C181.871 58.1805 182.252 57.5764 182.817 57.0308C183.383 56.4851 184.055 56.0467 184.835 55.7154C185.635 55.3646 186.453 55.1892 187.292 55.1892C188.423 55.1892 189.368 55.4133 190.129 55.8615C190.889 56.3097 191.464 57.0015 191.854 57.9369C192.244 58.8723 192.439 60.061 192.439 61.5031V70.7692H190.217V61.62C190.217 60.6067 190.08 59.7785 189.807 59.1354C189.554 58.4728 189.154 57.9856 188.608 57.6738C188.062 57.362 187.389 57.2159 186.59 57.2354C185.927 57.2354 185.313 57.3523 184.747 57.5862C184.182 57.8005 183.694 58.1026 183.285 58.4923C182.876 58.8821 182.554 59.3303 182.32 59.8369C182.086 60.3436 181.969 60.8892 181.969 61.4738V70.7692H180.887C180.75 70.7692 180.594 70.7692 180.419 70.7692C180.243 70.7692 180.029 70.7692 179.775 70.7692Z" fill="#252C58"/>
<path d="M208.743 69.7754V52.12L209.591 52.7631L205.789 55.0431L205.116 52.9969L210.176 50.0154H211.054V69.7754H208.743ZM205.731 70.7692V68.5477H214.125V70.7692H205.731Z" fill="#252C58"/>
<path d="M107.55 241.538L104.212 232.923H105.296L107.439 238.535C107.537 238.79 107.623 239.015 107.697 239.212C107.771 239.409 107.837 239.598 107.894 239.778C107.96 239.951 108.022 240.123 108.079 240.295C108.137 240.468 108.198 240.656 108.264 240.862L107.944 240.874C108.026 240.595 108.104 240.336 108.178 240.098C108.26 239.861 108.342 239.618 108.424 239.372C108.514 239.118 108.625 238.823 108.756 238.486L110.887 232.923H111.971L108.535 241.538H107.55Z" fill="white"/>
<path d="M113.42 241.538V235.114H114.343V241.538H113.42ZM113.875 233.723C113.646 233.723 113.469 233.666 113.346 233.551C113.231 233.428 113.174 233.264 113.174 233.058C113.174 232.853 113.235 232.689 113.358 232.566C113.481 232.443 113.654 232.382 113.875 232.382C114.097 232.382 114.27 232.443 114.393 232.566C114.516 232.681 114.577 232.845 114.577 233.058C114.577 233.255 114.516 233.415 114.393 233.538C114.27 233.662 114.097 233.723 113.875 233.723Z" fill="white"/>
<path d="M119.193 241.662C118.552 241.662 117.982 241.522 117.481 241.243C116.988 240.964 116.603 240.574 116.323 240.074C116.044 239.573 115.905 238.999 115.905 238.351C115.905 237.85 115.983 237.399 116.139 236.997C116.295 236.587 116.512 236.23 116.791 235.926C117.079 235.623 117.419 235.389 117.814 235.225C118.208 235.052 118.635 234.966 119.094 234.966C119.529 234.966 119.923 235.044 120.276 235.2C120.638 235.356 120.946 235.573 121.2 235.852C121.463 236.123 121.66 236.447 121.791 236.825C121.923 237.202 121.98 237.616 121.964 238.068L121.951 238.498H116.594L116.459 237.723H121.249L121.028 237.932V237.637C121.011 237.342 120.925 237.058 120.769 236.788C120.613 236.509 120.391 236.283 120.104 236.111C119.825 235.938 119.488 235.852 119.094 235.852C118.635 235.852 118.236 235.947 117.9 236.135C117.563 236.316 117.305 236.587 117.124 236.948C116.943 237.309 116.853 237.756 116.853 238.289C116.853 238.798 116.952 239.241 117.149 239.618C117.346 239.988 117.625 240.275 117.986 240.48C118.355 240.685 118.799 240.788 119.316 240.788C119.62 240.788 119.919 240.738 120.215 240.64C120.519 240.533 120.851 240.328 121.212 240.025L121.693 240.689C121.504 240.878 121.278 241.046 121.015 241.194C120.753 241.333 120.465 241.448 120.153 241.538C119.841 241.621 119.521 241.662 119.193 241.662Z" fill="white"/>
<path d="M124.67 241.538L122.441 235.114L123.426 235.102L125.162 240.332L124.855 240.308L126.739 236.098H127.293L129.189 240.308L128.82 240.332L130.593 235.114H131.566L129.337 241.538H128.795L126.8 236.96L127.17 236.985L125.236 241.538H124.67Z" fill="white"/>
<path d="M136.477 241.538V232.923H137.437V240.603H141.575V241.538H136.477Z" fill="white"/>
<path d="M145.674 241.662C145.034 241.662 144.463 241.522 143.962 241.243C143.47 240.964 143.084 240.574 142.805 240.074C142.526 239.573 142.386 238.999 142.386 238.351C142.386 237.85 142.464 237.399 142.62 236.997C142.776 236.587 142.994 236.23 143.273 235.926C143.56 235.623 143.901 235.389 144.295 235.225C144.689 235.052 145.116 234.966 145.575 234.966C146.011 234.966 146.405 235.044 146.758 235.2C147.119 235.356 147.427 235.573 147.681 235.852C147.944 236.123 148.141 236.447 148.272 236.825C148.404 237.202 148.461 237.616 148.445 238.068L148.432 238.498H143.076L142.94 237.723H147.731L147.509 237.932V237.637C147.492 237.342 147.406 237.058 147.25 236.788C147.094 236.509 146.873 236.283 146.585 236.111C146.306 235.938 145.97 235.852 145.575 235.852C145.116 235.852 144.718 235.947 144.381 236.135C144.044 236.316 143.786 236.587 143.605 236.948C143.425 237.309 143.334 237.756 143.334 238.289C143.334 238.798 143.433 239.241 143.63 239.618C143.827 239.988 144.106 240.275 144.467 240.48C144.837 240.685 145.28 240.788 145.797 240.788C146.101 240.788 146.401 240.738 146.696 240.64C147 240.533 147.332 240.328 147.694 240.025L148.174 240.689C147.985 240.878 147.759 241.046 147.497 241.194C147.234 241.333 146.947 241.448 146.635 241.538C146.323 241.621 146.002 241.662 145.674 241.662Z" fill="white"/>
<path d="M152.269 241.662C151.711 241.662 151.206 241.518 150.754 241.231C150.303 240.935 149.945 240.537 149.683 240.037C149.42 239.528 149.289 238.954 149.289 238.314C149.289 237.666 149.424 237.091 149.695 236.591C149.966 236.09 150.327 235.696 150.779 235.409C151.238 235.122 151.752 234.978 152.318 234.978C152.655 234.978 152.967 235.028 153.254 235.126C153.541 235.225 153.796 235.364 154.017 235.545C154.247 235.717 154.436 235.922 154.584 236.16C154.74 236.39 154.847 236.64 154.904 236.911L154.633 236.775L154.67 235.114H155.594V241.538H154.658V239.963L154.904 239.803C154.847 240.049 154.736 240.287 154.572 240.517C154.407 240.738 154.206 240.935 153.968 241.108C153.738 241.28 153.476 241.415 153.18 241.514C152.893 241.612 152.589 241.662 152.269 241.662ZM152.478 240.775C152.905 240.775 153.287 240.673 153.623 240.468C153.96 240.254 154.223 239.963 154.412 239.594C154.609 239.216 154.707 238.79 154.707 238.314C154.707 237.838 154.609 237.415 154.412 237.046C154.223 236.677 153.96 236.386 153.623 236.172C153.287 235.959 152.905 235.852 152.478 235.852C152.043 235.852 151.657 235.959 151.321 236.172C150.992 236.386 150.729 236.677 150.532 237.046C150.344 237.415 150.249 237.838 150.249 238.314C150.249 238.782 150.344 239.204 150.532 239.582C150.721 239.951 150.984 240.242 151.321 240.455C151.657 240.669 152.043 240.775 152.478 240.775Z" fill="white"/>
<path d="M160.004 241.662C159.421 241.662 158.895 241.518 158.428 241.231C157.968 240.944 157.602 240.55 157.332 240.049C157.069 239.541 156.937 238.966 156.937 238.326C156.937 237.678 157.073 237.104 157.344 236.603C157.615 236.094 157.98 235.696 158.44 235.409C158.9 235.122 159.417 234.978 159.991 234.978C160.312 234.978 160.62 235.028 160.915 235.126C161.219 235.225 161.49 235.364 161.728 235.545C161.966 235.717 162.163 235.918 162.319 236.148C162.475 236.369 162.569 236.603 162.602 236.849L162.319 236.751V232.431H163.243V241.538H162.331L162.307 239.938L162.541 239.852C162.508 240.082 162.413 240.308 162.257 240.529C162.11 240.743 161.921 240.935 161.691 241.108C161.461 241.28 161.198 241.415 160.903 241.514C160.615 241.612 160.316 241.662 160.004 241.662ZM160.139 240.812C160.566 240.812 160.948 240.706 161.285 240.492C161.621 240.279 161.884 239.984 162.073 239.606C162.27 239.229 162.368 238.798 162.368 238.314C162.368 237.83 162.27 237.403 162.073 237.034C161.884 236.656 161.621 236.361 161.285 236.148C160.948 235.926 160.566 235.815 160.139 235.815C159.696 235.815 159.306 235.926 158.969 236.148C158.641 236.361 158.378 236.656 158.181 237.034C157.992 237.403 157.898 237.83 157.898 238.314C157.898 238.79 157.992 239.216 158.181 239.594C158.37 239.971 158.633 240.271 158.969 240.492C159.306 240.706 159.696 240.812 160.139 240.812Z" fill="white"/>
<path d="M167.147 241.662C166.597 241.662 166.105 241.559 165.67 241.354C165.235 241.149 164.89 240.878 164.635 240.542L165.288 239.975C165.526 240.263 165.805 240.48 166.125 240.628C166.454 240.775 166.819 240.849 167.221 240.849C167.427 240.849 167.611 240.829 167.775 240.788C167.94 240.738 168.083 240.669 168.206 240.578C168.33 240.488 168.424 240.382 168.49 240.258C168.555 240.135 168.588 240 168.588 239.852C168.588 239.582 168.469 239.356 168.231 239.175C168.124 239.102 167.972 239.028 167.775 238.954C167.578 238.872 167.34 238.794 167.061 238.72C166.601 238.589 166.22 238.457 165.916 238.326C165.612 238.187 165.374 238.027 165.202 237.846C165.079 237.698 164.984 237.538 164.918 237.366C164.861 237.194 164.832 237.005 164.832 236.8C164.832 236.537 164.886 236.295 164.992 236.074C165.107 235.852 165.263 235.66 165.46 235.495C165.666 235.323 165.904 235.196 166.175 235.114C166.454 235.024 166.753 234.978 167.074 234.978C167.377 234.978 167.677 235.019 167.972 235.102C168.268 235.184 168.543 235.303 168.798 235.458C169.052 235.614 169.27 235.799 169.45 236.012L168.884 236.628C168.728 236.464 168.555 236.316 168.367 236.185C168.178 236.053 167.977 235.951 167.763 235.877C167.558 235.803 167.344 235.766 167.123 235.766C166.926 235.766 166.741 235.791 166.569 235.84C166.404 235.889 166.261 235.959 166.138 236.049C166.023 236.131 165.932 236.234 165.867 236.357C165.809 236.48 165.78 236.615 165.78 236.763C165.78 236.886 165.805 236.997 165.854 237.095C165.904 237.194 165.973 237.28 166.064 237.354C166.179 237.444 166.339 237.53 166.544 237.612C166.757 237.686 167.02 237.764 167.332 237.846C167.693 237.945 167.997 238.047 168.243 238.154C168.498 238.252 168.707 238.371 168.871 238.511C169.093 238.675 169.249 238.864 169.339 239.077C169.438 239.29 169.487 239.532 169.487 239.803C169.487 240.164 169.385 240.484 169.179 240.763C168.982 241.042 168.707 241.264 168.354 241.428C168.001 241.584 167.599 241.662 167.147 241.662Z" fill="white"/>
</g>
</svg>
