<svg width="850" height="521" viewBox="0 0 850 521" fill="none" xmlns="http://www.w3.org/2000/svg">
<g filter="url(#filter0_d_662_530)">
<rect x="6" y="48" width="838" height="465" rx="24" fill="white"/>
</g>
<path d="M88.1564 472.113C87.7063 472.113 87.3088 472.026 86.9638 471.854C86.6262 471.674 86.3487 471.434 86.1312 471.134L86.8737 470.447C87.0163 470.657 87.1925 470.819 87.4025 470.931C87.6201 471.044 87.8601 471.1 88.1226 471.1C88.3851 471.1 88.6176 471.044 88.8202 470.931C89.0227 470.819 89.1802 470.654 89.2927 470.436C89.4127 470.211 89.4727 469.937 89.4727 469.615V464.192H90.5303V469.559C90.5303 470.076 90.4253 470.526 90.2153 470.909C90.0128 471.291 89.7315 471.587 89.3715 471.797C89.0189 472.008 88.6139 472.113 88.1564 472.113ZM92.1463 472L95.3416 464.192H96.1066L99.2907 472H98.1431L95.5216 465.396H95.9154L93.2714 472H92.1463ZM93.6652 470.234V469.311H97.7718V470.234H93.6652ZM101.141 472V464.192H101.884L102.199 465.418V472H101.141ZM106.542 472L101.749 465.598L101.884 464.192L106.688 470.582L106.542 472ZM106.542 472L106.227 470.841V464.192H107.284V472H106.542Z" fill="#969696"/>
<path d="M148.784 472V464.192H149.841V472H148.784ZM149.504 468.568V467.601H153.576V468.568H149.504ZM149.504 465.159V464.192H153.768V465.159H149.504ZM155.831 472V464.192H156.889V472H155.831ZM156.551 472V471.032H161.029V472H156.551ZM156.551 468.467V467.545H160.658V468.467H156.551ZM156.551 465.159V464.192H160.973V465.159H156.551ZM163.851 472V471.077H166.214C166.664 471.077 167.017 470.946 167.272 470.684C167.527 470.414 167.654 470.091 167.654 469.716C167.654 469.461 167.598 469.232 167.485 469.03C167.373 468.82 167.208 468.655 166.99 468.535C166.78 468.415 166.533 468.355 166.248 468.355H163.851V467.432H166.09C166.465 467.432 166.762 467.335 166.979 467.14C167.204 466.937 167.317 466.648 167.317 466.273C167.317 465.898 167.2 465.613 166.968 465.418C166.735 465.216 166.428 465.114 166.045 465.114H163.851V464.192H166.068C166.578 464.192 167.002 464.286 167.339 464.473C167.684 464.653 167.943 464.893 168.115 465.193C168.296 465.493 168.386 465.823 168.386 466.183C168.386 466.603 168.269 466.971 168.037 467.286C167.812 467.601 167.478 467.848 167.035 468.028L167.125 467.691C167.628 467.871 168.018 468.145 168.296 468.512C168.581 468.872 168.723 469.3 168.723 469.795C168.723 470.207 168.622 470.579 168.419 470.909C168.217 471.239 167.924 471.505 167.542 471.707C167.167 471.902 166.705 472 166.158 472H163.851ZM163.143 472V464.192H164.2V472H163.143Z" fill="#969696"/>
<path d="M209.703 472V464.192H210.445L213.753 469.626H213.247L216.555 464.192H217.297V472H216.24V466.048L216.487 466.116L213.877 470.402H213.134L210.524 466.116L210.76 466.048V472H209.703ZM219.242 472L222.437 464.192H223.203L226.387 472H225.239L222.618 465.396H223.011L220.367 472H219.242ZM220.761 470.234V469.311H224.868V470.234H220.761ZM228.946 468.602V467.713H231.061C231.519 467.713 231.871 467.597 232.119 467.365C232.366 467.132 232.49 466.817 232.49 466.42C232.49 466.044 232.366 465.733 232.119 465.486C231.879 465.238 231.53 465.114 231.072 465.114H228.946V464.192H231.106C231.601 464.192 232.032 464.289 232.4 464.484C232.767 464.672 233.049 464.931 233.244 465.261C233.446 465.591 233.548 465.969 233.548 466.397C233.548 466.84 233.446 467.226 233.244 467.556C233.049 467.886 232.767 468.145 232.4 468.332C232.032 468.512 231.601 468.602 231.106 468.602H228.946ZM228.237 472V464.192H229.295V472H228.237ZM232.737 472L229.902 468.501L230.904 468.152L234.076 472H232.737Z" fill="#969696"/>
<path d="M274.526 472L277.721 464.192H278.486L281.67 472H280.523L277.901 465.396H278.295L275.651 472H274.526ZM276.045 470.234V469.311H280.151V470.234H276.045ZM284.23 468.962V468.04H286.356C286.649 468.04 286.907 467.98 287.132 467.86C287.365 467.74 287.545 467.571 287.672 467.353C287.807 467.136 287.875 466.877 287.875 466.577C287.875 466.277 287.807 466.018 287.672 465.801C287.545 465.583 287.365 465.414 287.132 465.294C286.907 465.174 286.649 465.114 286.356 465.114H284.23V464.192H286.424C286.904 464.192 287.331 464.289 287.706 464.484C288.089 464.679 288.389 464.957 288.606 465.317C288.831 465.669 288.944 466.089 288.944 466.577C288.944 467.057 288.831 467.477 288.606 467.837C288.389 468.19 288.089 468.467 287.706 468.67C287.331 468.865 286.904 468.962 286.424 468.962H284.23ZM283.521 472V464.192H284.578V472H283.521ZM291.64 468.602V467.713H293.755C294.213 467.713 294.565 467.597 294.813 467.365C295.06 467.132 295.184 466.817 295.184 466.42C295.184 466.044 295.06 465.733 294.813 465.486C294.573 465.238 294.224 465.114 293.766 465.114H291.64V464.192H293.8C294.295 464.192 294.726 464.289 295.094 464.484C295.461 464.672 295.743 464.931 295.938 465.261C296.14 465.591 296.242 465.969 296.242 466.397C296.242 466.84 296.14 467.226 295.938 467.556C295.743 467.886 295.461 468.145 295.094 468.332C294.726 468.512 294.295 468.602 293.8 468.602H291.64ZM290.931 472V464.192H291.989V472H290.931ZM295.431 472L292.596 468.501L293.598 468.152L296.77 472H295.431Z" fill="#969696"/>
<path d="M337.645 472V464.192H338.388L341.696 469.626H341.189L344.497 464.192H345.24V472H344.182V466.048L344.43 466.116L341.819 470.402H341.077L338.467 466.116L338.703 466.048V472H337.645ZM347.185 472L350.38 464.192H351.145L354.329 472H353.181L350.56 465.396H350.954L348.31 472H347.185ZM348.704 470.234V469.311H352.81V470.234H348.704ZM357.556 468.827L354.484 464.192H355.711L358.186 467.983H357.635L360.121 464.192H361.325L358.231 468.827H357.556ZM357.376 472V468.13H358.434V472H357.376Z" fill="#969696"/>
<path d="M404.296 472.113C403.846 472.113 403.448 472.026 403.103 471.854C402.766 471.674 402.488 471.434 402.271 471.134L403.013 470.447C403.156 470.657 403.332 470.819 403.542 470.931C403.76 471.044 404 471.1 404.262 471.1C404.525 471.1 404.757 471.044 404.96 470.931C405.162 470.819 405.32 470.654 405.432 470.436C405.552 470.211 405.612 469.937 405.612 469.615V464.192H406.67V469.559C406.67 470.076 406.565 470.526 406.355 470.909C406.152 471.291 405.871 471.587 405.511 471.797C405.159 472.008 404.754 472.113 404.296 472.113ZM412.027 472.113C411.449 472.113 410.932 471.985 410.474 471.73C410.024 471.467 409.668 471.111 409.405 470.661C409.143 470.204 409.011 469.686 409.011 469.109V464.192H410.069V469.086C410.069 469.499 410.155 469.855 410.328 470.155C410.5 470.455 410.733 470.687 411.025 470.852C411.325 471.017 411.659 471.1 412.027 471.1C412.409 471.1 412.743 471.017 413.028 470.852C413.321 470.687 413.549 470.455 413.714 470.155C413.887 469.855 413.973 469.502 413.973 469.097V464.192H415.042V469.12C415.042 469.697 414.911 470.211 414.648 470.661C414.386 471.111 414.029 471.467 413.579 471.73C413.129 471.985 412.612 472.113 412.027 472.113ZM417.457 472V464.192H418.199L418.514 465.418V472H417.457ZM422.857 472L418.064 465.598L418.199 464.192L423.003 470.582L422.857 472ZM422.857 472L422.542 470.841V464.192H423.6V472H422.857Z" fill="#969696"/>
<path d="M467.731 472.113C467.281 472.113 466.884 472.026 466.539 471.854C466.201 471.674 465.924 471.434 465.706 471.134L466.449 470.447C466.591 470.657 466.768 470.819 466.978 470.931C467.195 471.044 467.435 471.1 467.698 471.1C467.96 471.1 468.193 471.044 468.395 470.931C468.598 470.819 468.755 470.654 468.868 470.436C468.988 470.211 469.048 469.937 469.048 469.615V464.192H470.105V469.559C470.105 470.076 470 470.526 469.79 470.909C469.588 471.291 469.307 471.587 468.946 471.797C468.594 472.008 468.189 472.113 467.731 472.113ZM475.462 472.113C474.885 472.113 474.367 471.985 473.909 471.73C473.459 471.467 473.103 471.111 472.841 470.661C472.578 470.204 472.447 469.686 472.447 469.109V464.192H473.504V469.086C473.504 469.499 473.591 469.855 473.763 470.155C473.936 470.455 474.168 470.687 474.461 470.852C474.761 471.017 475.095 471.1 475.462 471.1C475.845 471.1 476.178 471.017 476.463 470.852C476.756 470.687 476.985 470.455 477.15 470.155C477.322 469.855 477.409 469.502 477.409 469.097V464.192H478.477V469.12C478.477 469.697 478.346 470.211 478.084 470.661C477.821 471.111 477.465 471.467 477.015 471.73C476.565 471.985 476.047 472.113 475.462 472.113ZM480.892 472V464.192H481.95V472H480.892ZM481.612 472V471.032H485.797V472H481.612Z" fill="#969696"/>
<path d="M526.472 472L529.667 464.192H530.432L533.616 472H532.469L529.847 465.396H530.241L527.597 472H526.472ZM527.991 470.234V469.311H532.097V470.234H527.991ZM538.304 472.113C537.727 472.113 537.209 471.985 536.752 471.73C536.302 471.467 535.945 471.111 535.683 470.661C535.42 470.204 535.289 469.686 535.289 469.109V464.192H536.347V469.086C536.347 469.499 536.433 469.855 536.605 470.155C536.778 470.455 537.01 470.687 537.303 470.852C537.603 471.017 537.937 471.1 538.304 471.1C538.687 471.1 539.021 471.017 539.306 470.852C539.598 470.687 539.827 470.455 539.992 470.155C540.164 469.855 540.251 469.502 540.251 469.097V464.192H541.32V469.12C541.32 469.697 541.188 470.211 540.926 470.661C540.663 471.111 540.307 471.467 539.857 471.73C539.407 471.985 538.889 472.113 538.304 472.113ZM547.267 472.113C546.719 472.113 546.206 472.011 545.726 471.809C545.253 471.599 544.837 471.31 544.477 470.942C544.124 470.575 543.847 470.147 543.644 469.66C543.442 469.172 543.34 468.647 543.34 468.085C543.34 467.522 543.442 467.001 543.644 466.521C543.847 466.033 544.128 465.606 544.488 465.238C544.848 464.871 545.268 464.586 545.748 464.383C546.236 464.181 546.764 464.079 547.334 464.079C547.957 464.079 548.531 464.199 549.056 464.439C549.581 464.679 550.02 465.024 550.372 465.474L549.641 466.206C549.393 465.846 549.067 465.572 548.662 465.384C548.257 465.189 547.814 465.092 547.334 465.092C546.764 465.092 546.258 465.219 545.816 465.474C545.381 465.729 545.039 466.082 544.792 466.532C544.552 466.982 544.432 467.5 544.432 468.085C544.432 468.677 544.555 469.199 544.803 469.649C545.051 470.099 545.384 470.451 545.804 470.706C546.224 470.961 546.704 471.089 547.244 471.089C547.792 471.089 548.265 470.984 548.662 470.774C549.067 470.564 549.378 470.256 549.596 469.851C549.813 469.439 549.922 468.936 549.922 468.343L550.563 468.805H547.188V467.837H551.014V467.995C551.014 468.902 550.852 469.664 550.53 470.279C550.215 470.886 549.772 471.344 549.202 471.651C548.64 471.959 547.995 472.113 547.267 472.113Z" fill="#969696"/>
<path d="M594.433 472.113C593.818 472.113 593.293 472 592.858 471.775C592.422 471.55 592.036 471.224 591.699 470.796L592.419 470.076C592.666 470.421 592.951 470.684 593.274 470.864C593.596 471.036 593.994 471.122 594.466 471.122C594.931 471.122 595.303 471.021 595.58 470.819C595.865 470.616 596.008 470.339 596.008 469.986C596.008 469.694 595.94 469.457 595.805 469.277C595.67 469.097 595.486 468.951 595.254 468.838C595.029 468.718 594.781 468.613 594.511 468.523C594.241 468.426 593.971 468.325 593.701 468.22C593.431 468.107 593.184 467.972 592.959 467.815C592.734 467.65 592.55 467.436 592.407 467.173C592.272 466.911 592.205 466.581 592.205 466.183C592.205 465.741 592.31 465.366 592.52 465.058C592.737 464.743 593.03 464.503 593.398 464.338C593.773 464.166 594.193 464.079 594.658 464.079C595.168 464.079 595.625 464.181 596.03 464.383C596.435 464.578 596.765 464.837 597.02 465.159L596.3 465.879C596.068 465.609 595.817 465.407 595.546 465.272C595.284 465.137 594.98 465.069 594.635 465.069C594.215 465.069 593.881 465.163 593.634 465.351C593.386 465.531 593.263 465.786 593.263 466.116C593.263 466.378 593.33 466.592 593.465 466.757C593.608 466.915 593.791 467.05 594.016 467.162C594.241 467.275 594.489 467.38 594.759 467.477C595.036 467.567 595.31 467.668 595.58 467.781C595.85 467.893 596.098 468.036 596.323 468.208C596.548 468.381 596.728 468.606 596.863 468.883C597.005 469.154 597.077 469.495 597.077 469.907C597.077 470.597 596.837 471.137 596.357 471.527C595.884 471.917 595.243 472.113 594.433 472.113ZM599.177 472V464.192H600.235V472H599.177ZM599.897 472V471.032H604.375V472H599.897ZM599.897 468.467V467.545H604.004V468.467H599.897ZM599.897 465.159V464.192H604.319V465.159H599.897ZM607.197 468.962V468.04H609.324C609.616 468.04 609.875 467.98 610.1 467.86C610.332 467.74 610.512 467.571 610.64 467.353C610.775 467.136 610.843 466.877 610.843 466.577C610.843 466.277 610.775 466.018 610.64 465.801C610.512 465.583 610.332 465.414 610.1 465.294C609.875 465.174 609.616 465.114 609.324 465.114H607.197V464.192H609.391C609.871 464.192 610.299 464.289 610.674 464.484C611.056 464.679 611.356 464.957 611.574 465.317C611.799 465.669 611.911 466.089 611.911 466.577C611.911 467.057 611.799 467.477 611.574 467.837C611.356 468.19 611.056 468.467 610.674 468.67C610.299 468.865 609.871 468.962 609.391 468.962H607.197ZM606.488 472V464.192H607.546V472H606.488Z" fill="#969696"/>
<path d="M656.917 472.113C656.362 472.113 655.845 472.011 655.365 471.809C654.885 471.599 654.464 471.31 654.104 470.942C653.744 470.567 653.463 470.136 653.261 469.649C653.066 469.161 652.968 468.64 652.968 468.085C652.968 467.522 653.066 467.001 653.261 466.521C653.463 466.033 653.741 465.606 654.093 465.238C654.453 464.871 654.87 464.586 655.342 464.383C655.822 464.181 656.34 464.079 656.895 464.079C657.45 464.079 657.964 464.181 658.436 464.383C658.916 464.586 659.336 464.871 659.696 465.238C660.056 465.606 660.337 466.033 660.54 466.521C660.743 467.008 660.844 467.533 660.844 468.096C660.844 468.651 660.743 469.172 660.54 469.66C660.337 470.147 660.056 470.575 659.696 470.942C659.344 471.31 658.927 471.599 658.447 471.809C657.975 472.011 657.465 472.113 656.917 472.113ZM656.895 471.1C657.457 471.1 657.949 470.972 658.369 470.717C658.796 470.455 659.134 470.099 659.381 469.649C659.629 469.191 659.752 468.67 659.752 468.085C659.752 467.65 659.681 467.252 659.539 466.892C659.396 466.525 659.197 466.206 658.942 465.936C658.687 465.666 658.387 465.459 658.042 465.317C657.697 465.167 657.315 465.092 656.895 465.092C656.34 465.092 655.848 465.219 655.421 465.474C655.001 465.729 654.667 466.082 654.419 466.532C654.179 466.982 654.059 467.5 654.059 468.085C654.059 468.52 654.127 468.925 654.262 469.3C654.404 469.667 654.599 469.986 654.847 470.256C655.102 470.519 655.402 470.725 655.747 470.875C656.1 471.025 656.482 471.1 656.895 471.1ZM666.58 472.113C666.017 472.113 665.496 472.011 665.016 471.809C664.536 471.599 664.116 471.31 663.756 470.942C663.403 470.575 663.129 470.147 662.934 469.66C662.739 469.172 662.642 468.651 662.642 468.096C662.642 467.533 662.739 467.008 662.934 466.521C663.129 466.033 663.403 465.609 663.756 465.249C664.116 464.882 664.532 464.597 665.004 464.394C665.484 464.184 666.006 464.079 666.568 464.079C667.183 464.079 667.723 464.184 668.188 464.394C668.653 464.604 669.066 464.889 669.426 465.249L668.695 465.981C668.447 465.703 668.143 465.486 667.783 465.328C667.431 465.171 667.026 465.092 666.568 465.092C666.156 465.092 665.777 465.167 665.432 465.317C665.087 465.459 664.787 465.666 664.532 465.936C664.277 466.206 664.078 466.525 663.936 466.892C663.801 467.26 663.733 467.661 663.733 468.096C663.733 468.531 663.801 468.932 663.936 469.3C664.078 469.667 664.277 469.986 664.532 470.256C664.787 470.526 665.087 470.736 665.432 470.886C665.777 471.029 666.156 471.1 666.568 471.1C667.056 471.1 667.48 471.021 667.84 470.864C668.2 470.699 668.503 470.477 668.751 470.2L669.482 470.92C669.122 471.295 668.698 471.587 668.211 471.797C667.731 472.008 667.187 472.113 666.58 472.113ZM673.34 472V464.417H674.398V472H673.34ZM670.685 465.159V464.192H677.042V465.159H670.685Z" fill="#969696"/>
<path d="M717.589 472V464.192H718.331L718.646 465.418V472H717.589ZM722.989 472L718.196 465.598L718.331 464.192L723.135 470.582L722.989 472ZM722.989 472L722.674 470.841V464.192H723.732V472H722.989ZM729.807 472.113C729.252 472.113 728.734 472.011 728.254 471.809C727.774 471.599 727.354 471.31 726.994 470.942C726.634 470.567 726.353 470.136 726.15 469.649C725.955 469.161 725.858 468.64 725.858 468.085C725.858 467.522 725.955 467.001 726.15 466.521C726.353 466.033 726.63 465.606 726.983 465.238C727.343 464.871 727.759 464.586 728.232 464.383C728.712 464.181 729.229 464.079 729.784 464.079C730.339 464.079 730.853 464.181 731.326 464.383C731.806 464.586 732.226 464.871 732.586 465.238C732.946 465.606 733.227 466.033 733.43 466.521C733.632 467.008 733.733 467.533 733.733 468.096C733.733 468.651 733.632 469.172 733.43 469.66C733.227 470.147 732.946 470.575 732.586 470.942C732.233 471.31 731.817 471.599 731.337 471.809C730.864 472.011 730.354 472.113 729.807 472.113ZM729.784 471.1C730.347 471.1 730.838 470.972 731.258 470.717C731.686 470.455 732.023 470.099 732.271 469.649C732.518 469.191 732.642 468.67 732.642 468.085C732.642 467.65 732.571 467.252 732.428 466.892C732.286 466.525 732.087 466.206 731.832 465.936C731.577 465.666 731.277 465.459 730.932 465.317C730.587 465.167 730.204 465.092 729.784 465.092C729.229 465.092 728.738 465.219 728.31 465.474C727.89 465.729 727.557 466.082 727.309 466.532C727.069 466.982 726.949 467.5 726.949 468.085C726.949 468.52 727.017 468.925 727.152 469.3C727.294 469.667 727.489 469.986 727.737 470.256C727.992 470.519 728.292 470.725 728.637 470.875C728.989 471.025 729.372 471.1 729.784 471.1ZM737.974 472L734.846 464.192H735.993L738.57 470.796H738.154L740.753 464.192H741.889L738.739 472H737.974Z" fill="#969696"/>
<path d="M785.672 472V471.032H787.844C788.421 471.032 788.927 470.909 789.362 470.661C789.797 470.406 790.135 470.057 790.375 469.615C790.623 469.172 790.746 468.662 790.746 468.085C790.746 467.515 790.623 467.008 790.375 466.566C790.128 466.123 789.786 465.778 789.351 465.531C788.916 465.283 788.414 465.159 787.844 465.159H785.683V464.192H787.866C788.436 464.192 788.961 464.289 789.441 464.484C789.929 464.679 790.349 464.953 790.701 465.306C791.061 465.658 791.339 466.071 791.534 466.543C791.736 467.016 791.838 467.533 791.838 468.096C791.838 468.651 791.736 469.169 791.534 469.649C791.339 470.121 791.065 470.534 790.713 470.886C790.36 471.239 789.94 471.512 789.452 471.707C788.972 471.902 788.451 472 787.889 472H785.672ZM784.975 472V464.192H786.032V472H784.975ZM793.978 472V464.192H795.036V472H793.978ZM794.698 472V471.032H799.176V472H794.698ZM794.698 468.467V467.545H798.805V468.467H794.698ZM794.698 465.159V464.192H799.12V465.159H794.698ZM804.669 472.113C804.106 472.113 803.585 472.011 803.105 471.809C802.625 471.599 802.205 471.31 801.845 470.942C801.492 470.575 801.218 470.147 801.023 469.66C800.828 469.172 800.731 468.651 800.731 468.096C800.731 467.533 800.828 467.008 801.023 466.521C801.218 466.033 801.492 465.609 801.845 465.249C802.205 464.882 802.621 464.597 803.093 464.394C803.574 464.184 804.095 464.079 804.657 464.079C805.272 464.079 805.812 464.184 806.277 464.394C806.743 464.604 807.155 464.889 807.515 465.249L806.784 465.981C806.536 465.703 806.232 465.486 805.872 465.328C805.52 465.171 805.115 465.092 804.657 465.092C804.245 465.092 803.866 465.167 803.521 465.317C803.176 465.459 802.876 465.666 802.621 465.936C802.366 466.206 802.167 466.525 802.025 466.892C801.89 467.26 801.822 467.661 801.822 468.096C801.822 468.531 801.89 468.932 802.025 469.3C802.167 469.667 802.366 469.986 802.621 470.256C802.876 470.526 803.176 470.736 803.521 470.886C803.866 471.029 804.245 471.1 804.657 471.1C805.145 471.1 805.569 471.021 805.929 470.864C806.289 470.699 806.593 470.477 806.84 470.2L807.571 470.92C807.211 471.295 806.788 471.587 806.3 471.797C805.82 472.008 805.276 472.113 804.669 472.113Z" fill="#969696"/>
<path d="M33.9641 119.129C33.3727 119.129 32.8412 118.991 32.3697 118.717C31.9068 118.443 31.5382 118.074 31.2639 117.611C30.9896 117.148 30.8525 116.634 30.8525 116.068C30.8525 115.28 31.1268 114.495 31.6754 113.715L34.2985 110.076H35.7L33.0126 113.741L32.5755 113.972C32.6783 113.792 32.8026 113.642 32.9483 113.522C33.0941 113.394 33.2741 113.295 33.4884 113.227C33.7027 113.158 33.9556 113.124 34.247 113.124C34.7699 113.124 35.2414 113.248 35.6614 113.497C36.09 113.745 36.4329 114.088 36.6901 114.525C36.9558 114.954 37.0887 115.455 37.0887 116.03C37.0887 116.596 36.9473 117.114 36.6644 117.586C36.3901 118.057 36.0129 118.434 35.5329 118.717C35.0614 118.991 34.5385 119.129 33.9641 119.129ZM33.9641 117.997C34.3242 117.997 34.6456 117.911 34.9285 117.74C35.22 117.56 35.4471 117.324 35.61 117.033C35.7814 116.733 35.8672 116.398 35.8672 116.03C35.8672 115.661 35.7814 115.331 35.61 115.04C35.4471 114.74 35.22 114.504 34.9285 114.332C34.6456 114.161 34.3242 114.075 33.9641 114.075C33.6041 114.075 33.2784 114.161 32.9869 114.332C32.704 114.504 32.4769 114.74 32.3054 115.04C32.1426 115.331 32.0611 115.661 32.0611 116.03C32.0611 116.398 32.1426 116.733 32.3054 117.033C32.4769 117.333 32.704 117.568 32.9869 117.74C33.2784 117.911 33.6041 117.997 33.9641 117.997ZM42.3535 119L39.499 115.875L42.3278 112.892H43.7294L40.5791 116.184L40.6305 115.515L43.8451 119H42.3535ZM38.4446 119V109.819H39.6019V119H38.4446Z" fill="#969696"/>
<path d="M33.8283 171.295C33.2197 171.295 32.6754 171.188 32.1953 170.974C31.7239 170.751 31.3253 170.43 30.9995 170.01L31.8224 169.187C32.0196 169.487 32.2896 169.727 32.6325 169.907C32.984 170.078 33.374 170.164 33.8026 170.164C34.2055 170.164 34.557 170.087 34.857 169.932C35.1656 169.778 35.4056 169.564 35.5771 169.289C35.7571 169.007 35.8471 168.672 35.8471 168.287C35.8471 167.892 35.7614 167.558 35.5899 167.284C35.4185 167.009 35.187 166.804 34.8956 166.666C34.6127 166.521 34.2998 166.448 33.9569 166.448C33.6055 166.448 33.284 166.491 32.9925 166.576C32.7097 166.662 32.4396 166.808 32.1825 167.014L32.1953 166.242C32.3411 166.062 32.5082 165.916 32.6968 165.805C32.8854 165.693 33.0997 165.608 33.3397 165.548C33.5797 165.488 33.8583 165.458 34.1755 165.458C34.7927 165.458 35.3156 165.586 35.7442 165.843C36.1728 166.101 36.4986 166.448 36.7214 166.885C36.9529 167.322 37.0686 167.811 37.0686 168.351C37.0686 168.917 36.9272 169.422 36.6443 169.868C36.37 170.314 35.9885 170.665 35.4999 170.922C35.0113 171.171 34.4541 171.295 33.8283 171.295ZM32.1825 167.014L31.5267 166.358L31.9253 162.243H33.0311L32.5811 166.473L32.1825 167.014ZM32.1696 163.323L31.9253 162.243H36.6186V163.323H32.1696ZM42.3535 171.167L39.499 168.042L42.3278 165.059H43.7294L40.5791 168.351L40.6305 167.682L43.8451 171.167H42.3535ZM38.4446 171.167V161.986H39.6019V171.167H38.4446Z" fill="#969696"/>
<path d="M30.3355 220.26L33.5886 214.41H34.9516L31.6342 220.26H30.3355ZM30.3355 221.006V220.26L30.8498 219.926H37.1761V221.006H30.3355ZM34.6945 223.333V217.431H35.8903V223.333H34.6945ZM42.3535 223.333L39.499 220.209L42.3278 217.226H43.7294L40.5791 220.517L40.6305 219.849L43.8451 223.333H42.3535ZM38.4446 223.333V214.152H39.6019V223.333H38.4446Z" fill="#969696"/>
<path d="M33.8531 275.629C33.2702 275.629 32.7388 275.521 32.2587 275.307C31.7873 275.084 31.3886 274.763 31.0629 274.343L31.8858 273.52C32.083 273.82 32.353 274.06 32.6959 274.24C33.0388 274.411 33.4202 274.497 33.8403 274.497C34.2346 274.497 34.5732 274.424 34.8561 274.278C35.1475 274.124 35.3747 273.91 35.5376 273.636C35.709 273.361 35.7947 273.044 35.7947 272.684C35.7947 272.315 35.709 271.998 35.5376 271.733C35.3747 271.458 35.1433 271.248 34.8432 271.102C34.5432 270.957 34.1875 270.884 33.776 270.884C33.6217 270.884 33.4674 270.897 33.3131 270.922C33.1588 270.94 33.0088 270.97 32.8631 271.012L33.3774 270.318C33.5403 270.241 33.716 270.181 33.9046 270.138C34.0932 270.095 34.2818 270.074 34.4703 270.074C34.9504 270.074 35.379 270.185 35.7562 270.408C36.1419 270.631 36.4462 270.944 36.6691 271.347C36.9005 271.75 37.0163 272.217 37.0163 272.748C37.0163 273.314 36.8791 273.816 36.6048 274.253C36.3391 274.681 35.9705 275.02 35.499 275.269C35.0275 275.509 34.4789 275.629 33.8531 275.629ZM32.8631 271.012V270.28L35.4733 267.309L36.9134 267.296L34.226 270.344L32.8631 271.012ZM31.4872 267.656V266.576H36.9134V267.296L35.859 267.656H31.4872ZM42.3535 275.5L39.499 272.375L42.3278 269.392H43.7294L40.5791 272.684L40.6305 272.015L43.8451 275.5H42.3535ZM38.4446 275.5V266.319H39.6019V275.5H38.4446Z" fill="#969696"/>
<path d="M31.0638 326.934L34.3555 323.462C34.6898 323.119 34.9513 322.823 35.1399 322.575C35.3285 322.318 35.4613 322.082 35.5385 321.868C35.6242 321.653 35.6671 321.43 35.6671 321.199C35.6671 320.745 35.5213 320.389 35.2299 320.132C34.9384 319.875 34.5613 319.746 34.0984 319.746C33.644 319.746 33.2454 319.857 32.9025 320.08C32.5597 320.295 32.2553 320.629 31.9896 321.083L31.141 320.376C31.4924 319.793 31.9167 319.356 32.4139 319.064C32.9111 318.764 33.4854 318.614 34.1369 318.614C34.6855 318.614 35.1613 318.722 35.5642 318.936C35.9757 319.15 36.2928 319.45 36.5157 319.836C36.7386 320.222 36.85 320.672 36.85 321.186C36.85 321.555 36.8029 321.885 36.7086 322.176C36.6229 322.468 36.4643 322.768 36.2328 323.076C36.0099 323.376 35.6971 323.736 35.2942 324.156L32.6325 326.895L31.0638 326.934ZM31.0638 327.667V326.934L32.0925 326.587H37.0557V327.667H31.0638ZM42.3535 327.667L39.499 324.542L42.3278 321.559H43.7294L40.5791 324.851L40.6305 324.182L43.8451 327.667H42.3535ZM38.4446 327.667V318.486H39.6019V327.667H38.4446Z" fill="#969696"/>
<path d="M35.3628 379.833V370.91H36.5586V379.833H35.3628ZM33.5369 371.99V370.91H36.43V371.99H33.5369ZM42.3535 379.833L39.499 376.709L42.3278 373.726H43.7294L40.5791 377.017L40.6305 376.349L43.8451 379.833H42.3535ZM38.4446 379.833V370.653H39.6019V379.833H38.4446Z" fill="#969696"/>
<path d="M39.805 432.129C39.1364 432.129 38.5235 431.94 37.9663 431.563C37.4177 431.186 36.9805 430.654 36.6547 429.968C36.329 429.274 36.1661 428.46 36.1661 427.525C36.1661 426.591 36.3247 425.781 36.6419 425.095C36.9676 424.409 37.4048 423.882 37.9534 423.514C38.502 423.136 39.1064 422.948 39.7664 422.948C40.4436 422.948 41.0565 423.136 41.6052 423.514C42.1538 423.882 42.5867 424.409 42.9038 425.095C43.2296 425.781 43.3924 426.595 43.3924 427.538C43.3924 428.473 43.2296 429.287 42.9038 429.981C42.5867 430.667 42.1538 431.199 41.6052 431.576C41.0651 431.944 40.4651 432.129 39.805 432.129ZM39.7793 430.984C40.2508 430.984 40.6622 430.856 41.0137 430.598C41.3737 430.333 41.6566 429.943 41.8623 429.428C42.068 428.914 42.1709 428.28 42.1709 427.525C42.1709 426.771 42.068 426.141 41.8623 425.635C41.6566 425.121 41.3737 424.735 41.0137 424.478C40.6536 424.212 40.2379 424.079 39.7664 424.079C39.3035 424.079 38.8921 424.212 38.532 424.478C38.172 424.735 37.8891 425.121 37.6834 425.635C37.4862 426.141 37.3877 426.771 37.3877 427.525C37.3877 428.28 37.4862 428.914 37.6834 429.428C37.8891 429.943 38.172 430.333 38.532 430.598C38.8921 430.856 39.3078 430.984 39.7793 430.984Z" fill="#969696"/>
<line x1="56.6027" y1="438.397" x2="810.397" y2="438.397" stroke="#E6E6E6" stroke-width="1.20546" stroke-linecap="round"/>
<line x1="56.6027" y1="376.397" x2="810.397" y2="376.397" stroke="#E6E6E6" stroke-width="1.20546" stroke-linecap="round" stroke-dasharray="3.21 5.63"/>
<line x1="56.6027" y1="324.397" x2="810.397" y2="324.397" stroke="#E6E6E6" stroke-width="1.20546" stroke-linecap="round" stroke-dasharray="3.21 5.63"/>
<line x1="56.6027" y1="272.397" x2="810.397" y2="272.397" stroke="#E6E6E6" stroke-width="1.20546" stroke-linecap="round" stroke-dasharray="3.21 5.63"/>
<line x1="56.6027" y1="220.397" x2="810.397" y2="220.397" stroke="#E6E6E6" stroke-width="1.20546" stroke-linecap="round" stroke-dasharray="3.21 5.63"/>
<line x1="56.6027" y1="168.397" x2="810.397" y2="168.397" stroke="#E6E6E6" stroke-width="1.20546" stroke-linecap="round" stroke-dasharray="3.21 5.63"/>
<line x1="56.6027" y1="115.397" x2="810.397" y2="115.397" stroke="#E6E6E6" stroke-width="1.20546" stroke-linecap="round" stroke-dasharray="3.21 5.63"/>
<line x1="28" y1="75.5982" x2="815" y2="75.5982" stroke="#E6E6E6" stroke-width="0.80364"/>
<path d="M77.9141 431.745V259.682H115.757V432.352C112.085 434.033 104.075 437.634 101.41 438.587C98.7461 439.54 94.8205 438.984 93.1908 438.587L77.9141 431.745Z" fill="url(#paint0_linear_662_530)"/>
<path d="M77.915 326.23V242.05H115.758V326.836C112.086 328.518 104.076 332.119 101.411 333.072C98.7471 334.025 94.8215 333.469 93.1918 333.072L77.915 326.23Z" fill="url(#paint1_linear_662_530)"/>
<path d="M77.915 326.23V242.05H115.758V326.836C112.086 328.518 104.076 332.119 101.411 333.072C98.7471 334.025 94.8215 333.469 93.1918 333.072L77.915 326.23Z" fill="url(#paint2_linear_662_530)"/>
<path d="M92.2925 247.967L77.915 242.05C93.7197 229.282 109.729 236.73 115.758 242.05C112.702 243.375 105.941 246.927 102.383 247.967C99.9474 248.68 93.9105 248.615 92.2925 247.967Z" fill="#CBB8FF"/>
<path d="M139.84 431.745V259.682H177.683V432.352C174.011 434.033 166.001 437.634 163.337 438.587C160.672 439.54 156.747 438.984 155.117 438.587L139.84 431.745Z" fill="url(#paint3_linear_662_530)"/>
<path d="M139.84 431.745V259.682H177.683V432.352C174.011 434.033 166.001 437.634 163.337 438.587C160.672 439.54 156.747 438.984 155.117 438.587L139.84 431.745Z" fill="url(#paint4_linear_662_530)"/>
<path d="M139.84 320.881V171H177.795V321.961C174.112 324.955 166.078 331.367 163.406 333.063C160.734 334.76 156.797 333.77 155.162 333.063L139.84 320.881Z" fill="url(#paint5_linear_662_530)"/>
<path d="M154.378 176.967L140 171.05C155.805 158.282 171.814 165.73 177.843 171.05C174.787 172.375 168.026 175.927 164.468 176.967C162.032 177.68 155.996 177.615 154.378 176.967Z" fill="#CBB8FF"/>
<path d="M202.765 431.745V349.682H240.608V432.351C236.936 434.033 228.926 437.634 226.262 438.587C223.597 439.54 219.672 438.984 218.042 438.587L202.765 431.745Z" fill="url(#paint6_linear_662_530)"/>
<path d="M202.765 366.988V344H240.72V367.154C237.037 367.613 229.003 368.596 226.331 368.856C223.659 369.117 219.722 368.965 218.087 368.856L202.765 366.988Z" fill="url(#paint7_linear_662_530)"/>
<path d="M217.144 349.967L202.766 344.05C218.571 331.282 234.58 338.73 240.609 344.05C237.553 345.375 230.792 348.927 227.234 349.967C224.798 350.68 218.762 350.615 217.144 349.967Z" fill="#CBB8FF"/>
<path d="M266.689 431.745V299.682H304.532V432.351C300.86 434.033 292.85 437.634 290.185 438.587C287.521 439.54 283.595 438.984 281.966 438.587L266.689 431.745Z" fill="url(#paint8_linear_662_530)"/>
<path d="M281.067 305.967L266.69 300.05C282.495 287.282 298.504 294.73 304.533 300.05C301.477 301.375 294.716 304.927 291.158 305.967C288.722 306.68 282.685 306.615 281.067 305.967Z" fill="#CBB8FF"/>
<path d="M330.613 431.745V379.682H368.456V432.352C364.784 434.033 356.774 437.634 354.109 438.587C351.445 439.54 347.519 438.984 345.89 438.587L330.613 431.745Z" fill="url(#paint9_linear_662_530)"/>
<path d="M344.991 385.967L330.614 380.05C346.418 367.282 362.428 374.73 368.457 380.05C365.401 381.375 358.64 384.927 355.082 385.967C352.646 386.68 346.609 386.615 344.991 385.967Z" fill="#CBB8FF"/>
<path d="M395 431.649V260H432V432.255C428.41 433.932 420.578 437.525 417.973 438.475C415.368 439.426 411.53 438.871 409.936 438.475L395 431.649Z" fill="url(#paint10_linear_662_530)"/>
<path d="M395 317.983V135H432V319.302C428.41 322.957 420.578 330.785 417.973 332.856C415.368 334.928 411.53 333.719 409.936 332.856L395 317.983Z" fill="url(#paint11_linear_662_530)"/>
<path d="M408.915 140.967L394.537 135.05C410.342 122.282 426.351 129.73 432.38 135.05C429.324 136.375 422.563 139.927 419.005 140.967C416.569 141.68 410.533 141.615 408.915 140.967Z" fill="#CBB8FF"/>
<path d="M456.462 431.745V259.682H494.305V432.352C490.633 434.033 482.623 437.634 479.959 438.587C477.294 439.54 473.369 438.984 471.739 438.587L456.462 431.745Z" fill="url(#paint12_linear_662_530)"/>
<path d="M470.841 265.967L456.463 260.05C472.268 247.282 488.277 254.73 494.306 260.05C491.25 261.375 484.489 264.927 480.931 265.967C478.496 266.68 472.459 266.615 470.841 265.967Z" fill="#CBB8FF"/>
<path d="M520.386 431.745V259.682H558.229V432.352C554.557 434.033 546.547 437.634 543.883 438.587C541.218 439.54 537.293 438.984 535.663 438.587L520.386 431.745Z" fill="url(#paint13_linear_662_530)"/>
<path d="M520.387 326.23V192.05H558.23V326.837C554.558 328.518 546.548 332.119 543.884 333.072C541.219 334.025 537.294 333.469 535.664 333.072L520.387 326.23Z" fill="url(#paint14_linear_662_530)"/>
<path d="M534.765 197.967L520.387 192.05C536.192 179.282 552.201 186.73 558.23 192.05C555.174 193.375 548.413 196.927 544.855 197.967C542.42 198.68 536.383 198.615 534.765 197.967Z" fill="#CBB8FF"/>
<path d="M583.311 431.745V209.682H621.154V432.352C617.482 434.033 609.472 437.634 606.807 438.587C604.143 439.54 600.217 438.984 598.588 438.587L583.311 431.745Z" fill="url(#paint15_linear_662_530)"/>
<path d="M597.69 215.967L583.312 210.05C599.117 197.282 615.126 204.73 621.155 210.05C618.099 211.375 611.338 214.927 607.78 215.967C605.344 216.68 599.308 216.615 597.69 215.967Z" fill="#CBB8FF"/>
<path d="M646.236 431.745V349.682H684.079V432.352C680.407 434.033 672.397 437.634 669.732 438.587C667.068 439.54 663.142 438.984 661.513 438.587L646.236 431.745Z" fill="url(#paint16_linear_662_530)"/>
<path d="M660.614 355.967L646.237 350.05C662.041 337.282 678.051 344.73 684.08 350.05C681.024 351.375 674.263 354.927 670.705 355.967C668.269 356.68 662.232 356.615 660.614 355.967Z" fill="#CBB8FF"/>
<path d="M711.159 431.745V309.682H749.002V432.351C745.33 434.033 737.319 437.634 734.655 438.587C731.991 439.54 728.065 438.984 726.435 438.587L711.159 431.745Z" fill="url(#paint17_linear_662_530)"/>
<path d="M725.537 315.967L711.16 310.05C726.964 297.282 742.974 304.73 749.003 310.05C745.947 311.375 739.185 314.927 735.628 315.967C733.192 316.68 727.155 316.615 725.537 315.967Z" fill="#CBB8FF"/>
<path d="M777.08 431.745V259.682H814.923V432.352C811.251 434.033 803.241 437.634 800.576 438.587C797.912 439.54 793.987 438.984 792.357 438.587L777.08 431.745Z" fill="url(#paint18_linear_662_530)"/>
<path d="M777.081 326.23V242.05H814.924V326.836C811.252 328.518 803.242 332.119 800.577 333.072C797.913 334.025 793.988 333.469 792.358 333.072L777.081 326.23Z" fill="url(#paint19_linear_662_530)"/>
<path d="M791.459 247.967L777.081 242.05C792.886 229.282 808.895 236.73 814.924 242.05C811.868 243.375 805.107 246.927 801.549 247.967C799.113 248.68 793.077 248.615 791.459 247.967Z" fill="#CBB8FF"/>
<defs>
<filter id="filter0_d_662_530" x="0" y="44" width="850" height="477" filterUnits="userSpaceOnUse" color-interpolation-filters="sRGB">
<feFlood flood-opacity="0" result="BackgroundImageFix"/>
<feColorMatrix in="SourceAlpha" type="matrix" values="0 0 0 0 0 0 0 0 0 0 0 0 0 0 0 0 0 0 127 0" result="hardAlpha"/>
<feOffset dy="2"/>
<feGaussianBlur stdDeviation="3"/>
<feComposite in2="hardAlpha" operator="out"/>
<feColorMatrix type="matrix" values="0 0 0 0 0.0509804 0 0 0 0 0.0392157 0 0 0 0 0.172549 0 0 0 0.08 0"/>
<feBlend mode="normal" in2="BackgroundImageFix" result="effect1_dropShadow_662_530"/>
<feBlend mode="normal" in="SourceGraphic" in2="effect1_dropShadow_662_530" result="shape"/>
</filter>
<linearGradient id="paint0_linear_662_530" x1="77.9141" y1="303.952" x2="115.757" y2="303.952" gradientUnits="userSpaceOnUse">
<stop stop-color="#CFBDFF"/>
<stop offset="0.41691" stop-color="#A085FF"/>
<stop offset="0.626654" stop-color="#8561FF"/>
</linearGradient>
<linearGradient id="paint1_linear_662_530" x1="77.915" y1="254.35" x2="115.758" y2="254.35" gradientUnits="userSpaceOnUse">
<stop stop-color="#BCB6FF"/>
<stop offset="0.41691" stop-color="#A8A1FF"/>
<stop offset="0.626654" stop-color="#7E73FF"/>
</linearGradient>
<linearGradient id="paint2_linear_662_530" x1="77.915" y1="264.637" x2="115.758" y2="264.637" gradientUnits="userSpaceOnUse">
<stop stop-color="#CFBDFF"/>
<stop offset="0.41691" stop-color="#A085FF"/>
<stop offset="0.626654" stop-color="#8561FF"/>
</linearGradient>
<linearGradient id="paint3_linear_662_530" x1="139.84" y1="303.952" x2="177.683" y2="303.952" gradientUnits="userSpaceOnUse">
<stop stop-color="#BDB7FF"/>
<stop offset="0.41691" stop-color="#A8A1FF"/>
<stop offset="0.626654" stop-color="#7E72FF"/>
</linearGradient>
<linearGradient id="paint4_linear_662_530" x1="139.84" y1="303.952" x2="177.683" y2="303.952" gradientUnits="userSpaceOnUse">
<stop stop-color="#CFBDFF"/>
<stop offset="0.41691" stop-color="#A085FF"/>
<stop offset="0.626654" stop-color="#8561FF"/>
</linearGradient>
<linearGradient id="paint5_linear_662_530" x1="139.84" y1="211.216" x2="177.795" y2="211.216" gradientUnits="userSpaceOnUse">
<stop stop-color="#CFBDFF"/>
<stop offset="0.41691" stop-color="#A085FF"/>
<stop offset="0.626654" stop-color="#8561FF"/>
</linearGradient>
<linearGradient id="paint6_linear_662_530" x1="202.765" y1="371.747" x2="240.608" y2="371.747" gradientUnits="userSpaceOnUse">
<stop stop-color="#CFBDFF"/>
<stop offset="0.41691" stop-color="#A085FF"/>
<stop offset="0.626654" stop-color="#8561FF"/>
</linearGradient>
<linearGradient id="paint7_linear_662_530" x1="202.765" y1="350.168" x2="240.72" y2="350.168" gradientUnits="userSpaceOnUse">
<stop stop-color="#CFBDFF"/>
<stop offset="0.41691" stop-color="#A085FF"/>
<stop offset="0.626654" stop-color="#8561FF"/>
</linearGradient>
<linearGradient id="paint8_linear_662_530" x1="266.689" y1="334.083" x2="304.532" y2="334.083" gradientUnits="userSpaceOnUse">
<stop stop-color="#CFBDFF"/>
<stop offset="0.41691" stop-color="#A085FF"/>
<stop offset="0.626654" stop-color="#8561FF"/>
</linearGradient>
<linearGradient id="paint9_linear_662_530" x1="330.613" y1="394.345" x2="368.456" y2="394.345" gradientUnits="userSpaceOnUse">
<stop stop-color="#CFBDFF"/>
<stop offset="0.41691" stop-color="#A085FF"/>
<stop offset="0.626654" stop-color="#8561FF"/>
</linearGradient>
<linearGradient id="paint10_linear_662_530" x1="395" y1="304.164" x2="432" y2="304.164" gradientUnits="userSpaceOnUse">
<stop stop-color="#CFBDFF"/>
<stop offset="0.41691" stop-color="#A085FF"/>
<stop offset="0.626654" stop-color="#8561FF"/>
</linearGradient>
<linearGradient id="paint11_linear_662_530" x1="395" y1="184.098" x2="432" y2="184.098" gradientUnits="userSpaceOnUse">
<stop stop-color="#CFBDFF"/>
<stop offset="0.41691" stop-color="#A085FF"/>
<stop offset="0.626654" stop-color="#8561FF"/>
</linearGradient>
<linearGradient id="paint12_linear_662_530" x1="456.462" y1="303.952" x2="494.306" y2="303.952" gradientUnits="userSpaceOnUse">
<stop stop-color="#CFBDFF"/>
<stop offset="0.41691" stop-color="#A085FF"/>
<stop offset="0.626654" stop-color="#8561FF"/>
</linearGradient>
<linearGradient id="paint13_linear_662_530" x1="520.386" y1="303.952" x2="558.229" y2="303.952" gradientUnits="userSpaceOnUse">
<stop stop-color="#CFBDFF"/>
<stop offset="0.41691" stop-color="#A085FF"/>
<stop offset="0.626654" stop-color="#8561FF"/>
</linearGradient>
<linearGradient id="paint14_linear_662_530" x1="520.387" y1="226.974" x2="558.23" y2="226.974" gradientUnits="userSpaceOnUse">
<stop stop-color="#CFBDFF"/>
<stop offset="0.41691" stop-color="#A085FF"/>
<stop offset="0.626654" stop-color="#8561FF"/>
</linearGradient>
<linearGradient id="paint15_linear_662_530" x1="583.311" y1="266.288" x2="621.154" y2="266.288" gradientUnits="userSpaceOnUse">
<stop stop-color="#CFBDFF"/>
<stop offset="0.41691" stop-color="#A085FF"/>
<stop offset="0.626654" stop-color="#8561FF"/>
</linearGradient>
<linearGradient id="paint16_linear_662_530" x1="646.236" y1="371.747" x2="684.079" y2="371.747" gradientUnits="userSpaceOnUse">
<stop stop-color="#CFBDFF"/>
<stop offset="0.41691" stop-color="#A085FF"/>
<stop offset="0.626654" stop-color="#8561FF"/>
</linearGradient>
<linearGradient id="paint17_linear_662_530" x1="711.159" y1="341.616" x2="749.002" y2="341.616" gradientUnits="userSpaceOnUse">
<stop stop-color="#CFBDFF"/>
<stop offset="0.41691" stop-color="#A085FF"/>
<stop offset="0.626654" stop-color="#8561FF"/>
</linearGradient>
<linearGradient id="paint18_linear_662_530" x1="777.08" y1="303.952" x2="814.923" y2="303.952" gradientUnits="userSpaceOnUse">
<stop stop-color="#CFBDFF"/>
<stop offset="0.41691" stop-color="#A085FF"/>
<stop offset="0.626654" stop-color="#8561FF"/>
</linearGradient>
<linearGradient id="paint19_linear_662_530" x1="777.081" y1="264.637" x2="814.924" y2="264.637" gradientUnits="userSpaceOnUse">
<stop stop-color="#CFBDFF"/>
<stop offset="0.41691" stop-color="#A085FF"/>
<stop offset="0.626654" stop-color="#8561FF"/>
</linearGradient>
</defs>
</svg>
