<svg width="24" height="22" viewBox="0 0 24 22" fill="none" xmlns="http://www.w3.org/2000/svg">
<g clip-path="url(#clip0_559_233)">
<path d="M19.0131 7.29053V7.99604V8.70156V11.259C19.0131 13.8165 16.8665 15.8449 14.1598 15.8449H9.02646H8.2798C7.9998 15.8449 7.81313 15.8449 7.62646 15.9331C7.81313 17.2559 9.1198 18.3142 10.6131 18.3142H16.0265C16.5865 18.3142 17.2398 18.4906 17.7065 18.8433L20.9731 21.0481C21.0665 21.1363 21.2531 21.1363 21.4398 21.1363C21.5331 21.1363 21.6265 21.1363 21.8131 21.0481C22.0931 20.9599 22.1865 20.6953 22.1865 20.4307V10.289C22.1865 8.61337 20.7865 7.29053 19.0131 7.29053Z" fill="#BBF7D0"/>
<path d="M8.27999 14.3457H9.02665H14.2533C16.12 14.3457 17.6133 12.9347 17.6133 11.1709V8.70163V7.99611V7.2906V5.615C17.6133 3.85122 16.12 2.44019 14.2533 2.44019H5.01332C3.14665 2.44019 1.65332 3.85122 1.65332 5.615V16.815C1.65332 17.0796 1.83999 17.3442 2.02665 17.4324C2.11999 17.4324 2.30665 17.4324 2.39999 17.4324C2.58665 17.4324 2.67999 17.4324 2.86665 17.3442L6.41332 14.9631C6.78665 14.6985 7.15999 14.6103 7.53332 14.4339C7.71999 14.4339 7.99999 14.3457 8.27999 14.3457Z" fill="#BBF7D0"/>
</g>
<defs>
<clipPath id="clip0_559_233">
<rect width="22.4" height="21.1654" fill="white" transform="translate(0.720215 0.676514)"/>
</clipPath>
</defs>
</svg>
