<svg width="24" height="22" viewBox="0 0 24 22" fill="none" xmlns="http://www.w3.org/2000/svg">
<g clip-path="url(#clip0_260_223)">
<path d="M19.0131 7.29077V7.99629V8.7018V11.2593C19.0131 13.8168 16.8665 15.8451 14.1598 15.8451H9.02646H8.2798C7.9998 15.8451 7.81313 15.8451 7.62646 15.9333C7.81313 17.2562 9.1198 18.3144 10.6131 18.3144H16.0265C16.5865 18.3144 17.2398 18.4908 17.7065 18.8436L20.9731 21.0483C21.0665 21.1365 21.2531 21.1365 21.4398 21.1365C21.5331 21.1365 21.6265 21.1365 21.8131 21.0483C22.0931 20.9601 22.1865 20.6956 22.1865 20.431V10.2892C22.1865 8.61361 20.7865 7.29077 19.0131 7.29077Z" fill="#BBF7D0"/>
<path d="M8.27999 14.3459H9.02665H14.2533C16.12 14.3459 17.6133 12.9348 17.6133 11.1711V8.70175V7.99624V7.29072V5.61512C17.6133 3.85134 16.12 2.44031 14.2533 2.44031H5.01332C3.14665 2.44031 1.65332 3.85134 1.65332 5.61512V16.8152C1.65332 17.0797 1.83999 17.3443 2.02665 17.4325C2.11999 17.4325 2.30665 17.4325 2.39999 17.4325C2.58665 17.4325 2.67999 17.4325 2.86665 17.3443L6.41332 14.9632C6.78665 14.6986 7.15999 14.6104 7.53332 14.4341C7.71999 14.4341 7.99999 14.3459 8.27999 14.3459Z" fill="#BBF7D0"/>
</g>
<path fill-rule="evenodd" clip-rule="evenodd" d="M1.65332 5.77515C1.65332 3.89191 3.17065 2.44031 5.1656 2.44031H14.0077C16.0242 2.44031 17.52 4.00023 17.52 5.77515V11.0315C17.52 12.9352 15.8888 14.3663 14.0077 14.3663H8.20507C7.6002 14.3663 7.05154 14.5542 6.54306 14.8988L3.13919 17.2613C2.85563 17.4582 2.47902 17.4876 2.1651 17.3374C1.85119 17.1873 1.65332 16.8831 1.65332 16.5506V5.77515ZM3.51999 14.8085L5.44966 13.4692C6.22963 12.9393 7.1535 12.6025 8.20507 12.6025H14.0077C14.8898 12.6025 15.6533 11.9311 15.6533 11.0315V5.77515C15.6533 4.92191 14.9386 4.20409 14.0077 4.20409H5.1656C4.21318 4.20409 3.51999 4.85502 3.51999 5.77515V14.8085Z" fill="#4ADE80"/>
<path fill-rule="evenodd" clip-rule="evenodd" d="M18.9488 8.27924C19.1442 7.82854 19.6893 7.61286 20.1663 7.79751C21.3423 8.25276 22.187 9.30511 22.187 10.5383V20.0782C22.187 20.4017 21.9995 20.6992 21.6986 20.8534C21.3977 21.0076 21.0316 20.9938 20.7446 20.8174L17.4779 18.809C17.4576 18.7964 17.4377 18.7832 17.4184 18.7692C17.06 18.509 16.5185 18.3659 15.8732 18.3659H10.3968C9.10254 18.3659 7.89674 17.6906 7.34625 16.6118C7.12238 16.173 7.3173 15.6459 7.78161 15.4344C8.24593 15.2228 8.80381 15.407 9.02768 15.8457C9.24582 16.2732 9.76943 16.6021 10.3968 16.6021H15.8732C16.7535 16.6021 17.7348 16.7887 18.5241 17.3479L20.3203 18.4522V10.5383C20.3203 10.0978 20.012 9.64385 19.4586 9.42963C18.9816 9.24499 18.7534 8.72994 18.9488 8.27924Z" fill="#4ADE80"/>
<defs>
<clipPath id="clip0_260_223">
<rect width="22.4" height="21.1654" fill="white" transform="translate(0.720215 0.676514)"/>
</clipPath>
</defs>
</svg>
