<svg width="20" height="20" viewBox="0 0 20 20" fill="none" xmlns="http://www.w3.org/2000/svg">
<path d="M14.5647 7.50922C14.5709 7.50919 14.5771 7.50917 14.5834 7.50917C16.6544 7.50917 18.3334 9.19118 18.3334 11.2661C18.3334 13.1998 16.875 14.7924 15 15M14.5647 7.50922C14.577 7.37172 14.5834 7.23247 14.5834 7.09174C14.5834 4.55579 12.5313 2.5 10 2.5C7.60272 2.5 5.63529 4.34389 5.43371 6.69326M14.5647 7.50922C14.4795 8.45632 14.1072 9.3205 13.5357 10.0138M5.43371 6.69326C3.32 6.89477 1.66669 8.67827 1.66669 10.8486C1.66669 12.8681 3.09815 14.5527 5.00002 14.9394M5.43371 6.69326C5.56524 6.68072 5.69855 6.67431 5.83335 6.67431C6.77154 6.67431 7.63731 6.98495 8.33376 7.50917" stroke="black" stroke-opacity="0.6" stroke-width="1.5" stroke-linecap="round" stroke-linejoin="round"/>
<path d="M10 10.8334L10 17.5M10 10.8334C9.4165 10.8334 8.32629 12.4953 7.91669 12.9167M10 10.8334C10.5835 10.8334 11.6737 12.4953 12.0834 12.9167" stroke="black" stroke-opacity="0.6" stroke-width="1.5" stroke-linecap="round" stroke-linejoin="round"/>
</svg>
