<svg width="40" height="39" viewBox="0 0 40 39" fill="none" xmlns="http://www.w3.org/2000/svg">
<g clip-path="url(#clip0_28_1143)">
<path d="M20 4.875C18.2125 4.875 16.75 6.3375 16.75 8.125C16.75 9.9125 18.2125 11.375 20 11.375C21.7875 11.375 23.25 9.9125 23.25 8.125C23.25 6.3375 21.7875 4.875 20 4.875ZM20 27.625C18.2125 27.625 16.75 29.0875 16.75 30.875C16.75 32.6625 18.2125 34.125 20 34.125C21.7875 34.125 23.25 32.6625 23.25 30.875C23.25 29.0875 21.7875 27.625 20 27.625ZM20 16.25C18.2125 16.25 16.75 17.7125 16.75 19.5C16.75 21.2875 18.2125 22.75 20 22.75C21.7875 22.75 23.25 21.2875 23.25 19.5C23.25 17.7125 21.7875 16.25 20 16.25Z" fill="#002046"/>
</g>
<defs>
<clipPath id="clip0_28_1143">
<rect width="39" height="39" fill="white" transform="translate(0.5)"/>
</clipPath>
</defs>
</svg>
