<svg width="40" height="40" viewBox="0 0 40 40" fill="none" xmlns="http://www.w3.org/2000/svg">
<g clip-path="url(#clip0_28_1130)">
<path d="M24.7134 12.9283L15.2867 22.3566C15.1276 22.5104 15.0006 22.6943 14.9132 22.8976C14.8259 23.101 14.7799 23.3197 14.778 23.541C14.7761 23.7623 14.8182 23.9817 14.902 24.1866C14.9858 24.3914 15.1096 24.5775 15.2661 24.734C15.4226 24.8905 15.6087 25.0142 15.8135 25.098C16.0183 25.1818 16.2378 25.224 16.4591 25.2221C16.6804 25.2201 16.8991 25.1742 17.1024 25.0868C17.3058 24.9995 17.4897 24.8725 17.6434 24.7133L27.0717 15.2866C28.0095 14.3489 28.5363 13.077 28.5363 11.7508C28.5363 10.4246 28.0095 9.15274 27.0717 8.21498C26.134 7.27721 24.8621 6.75039 23.5359 6.75039C22.2097 6.75039 20.9378 7.27721 20.0001 8.21498L10.5717 17.6433C9.78186 18.4135 9.15279 19.3329 8.721 20.3481C8.28921 21.3634 8.06331 22.4542 8.0564 23.5574C8.04949 24.6607 8.2617 25.7543 8.68073 26.7748C9.09976 27.7954 9.71727 28.7226 10.4974 29.5026C11.2776 30.2827 12.2049 30.9001 13.2255 31.3189C14.2461 31.7378 15.3398 31.9499 16.443 31.9428C17.5462 31.9358 18.637 31.7097 19.6522 31.2778C20.6673 30.8458 21.5866 30.2166 22.3567 29.4266L31.7851 20L34.1417 22.3566L24.7134 31.785C23.63 32.8684 22.3438 33.7278 20.9283 34.3141C19.5127 34.9005 17.9956 35.2022 16.4634 35.2022C14.9312 35.2022 13.4141 34.9005 11.9985 34.3141C10.583 33.7278 9.29681 32.8684 8.2134 31.785C7.13 30.7016 6.27059 29.4154 5.68426 27.9998C5.09792 26.5843 4.79614 25.0671 4.79614 23.535C4.79614 22.0028 5.09792 20.4856 5.68426 19.0701C6.27059 17.6546 7.13 16.3684 8.2134 15.285L17.6434 5.85831C19.2151 4.34032 21.3201 3.50037 23.5051 3.51936C25.6901 3.53834 27.7802 4.41475 29.3252 5.95982C30.8703 7.50489 31.7467 9.59499 31.7657 11.78C31.7847 13.9649 30.9447 16.07 29.4267 17.6416L20.0001 27.0733C19.5356 27.5376 18.9843 27.906 18.3775 28.1572C17.7707 28.4085 17.1204 28.5377 16.4636 28.5377C15.8069 28.5376 15.1566 28.4081 14.5499 28.1568C13.9432 27.9054 13.3919 27.5369 12.9276 27.0725C12.4632 26.608 12.0949 26.0567 11.8437 25.4499C11.5924 24.8431 11.4631 24.1928 11.4632 23.5361C11.4633 22.8793 11.5927 22.229 11.8441 21.6223C12.0955 21.0156 12.464 20.4643 12.9284 20L22.3567 10.5716L24.7134 12.9283Z" fill="#A6ADB5"/>
</g>
<defs>
<clipPath id="clip0_28_1130">
<rect width="40" height="40" fill="white"/>
</clipPath>
</defs>
</svg>
