<svg width="23" height="21" viewBox="0 0 23 21" fill="none" xmlns="http://www.w3.org/2000/svg">
<g opacity="0.5">
<path d="M19.3584 4.60152L13.4167 1.33806C12.2667 0.720647 10.8292 0.720647 9.67925 1.33806L3.64175 4.60152C2.58758 5.21893 1.91675 6.36555 1.91675 7.51217V13.4217C1.91675 14.5683 2.58758 15.7149 3.64175 16.3323L9.58341 19.684C10.1584 20.0368 10.8292 20.125 11.5001 20.125C12.1709 20.125 12.8417 19.9486 13.4167 19.684L19.3584 16.4205C20.4126 15.8031 21.0834 14.7447 21.0834 13.5099V7.51217C21.0834 6.36555 20.4126 5.21893 19.3584 4.60152ZM11.5001 13.7745C9.58341 13.7745 7.95425 12.2751 7.95425 10.511C7.95425 8.74699 9.48758 7.24757 11.5001 7.24757C13.5126 7.24757 15.0459 8.65879 15.0459 10.511C15.0459 12.2751 13.4167 13.7745 11.5001 13.7745Z" fill="#98A2B3"/>
</g>
</svg>
