<svg width="40" height="40" viewBox="0 0 40 40" fill="none" xmlns="http://www.w3.org/2000/svg">
<rect x="0.25" y="0.25" width="39.5" height="39.5" rx="7.75" stroke="black" stroke-opacity="0.2" stroke-width="0.5"/>
<path d="M19.9998 23.3335H20.0073" stroke="#534FEB" stroke-linecap="round" stroke-linejoin="round"/>
<path d="M20 20.8335L20 16.6668" stroke="#534FEB" stroke-linecap="round" stroke-linejoin="round"/>
<path d="M23.5902 13.6534C23.0977 13.6534 22.8514 13.6534 22.6271 13.5701C22.5959 13.5586 22.5652 13.5458 22.535 13.532C22.3175 13.4322 22.1433 13.2581 21.7951 12.9098C20.9935 12.1082 20.5927 11.7074 20.0996 11.6705C20.0333 11.6655 19.9667 11.6655 19.9004 11.6705C19.4072 11.7074 19.0064 12.1082 18.2048 12.9098C17.8566 13.2581 17.6824 13.4322 17.4649 13.532C17.4347 13.5458 17.404 13.5586 17.3728 13.5701C17.1485 13.6534 16.9022 13.6534 16.4097 13.6534H16.3189C15.0623 13.6534 14.434 13.6534 14.0436 14.0437C13.6532 14.4341 13.6532 15.0624 13.6532 16.319V16.4098C13.6532 16.9024 13.6532 17.1486 13.57 17.373C13.5584 17.4041 13.5457 17.4348 13.5319 17.4651C13.4321 17.6826 13.2579 17.8567 12.9097 18.205C12.1081 19.0065 11.7073 19.4073 11.6704 19.9005C11.6654 19.9668 11.6654 20.0334 11.6704 20.0997C11.7073 20.5928 12.1081 20.9936 12.9097 21.7952C13.2579 22.1435 13.4321 22.3176 13.5319 22.5351C13.5457 22.5653 13.5584 22.596 13.57 22.6272C13.6532 22.8515 13.6532 23.0978 13.6532 23.5903V23.6812C13.6532 24.9378 13.6532 25.5661 14.0436 25.9564C14.434 26.3468 15.0623 26.3468 16.3189 26.3468H16.4097C16.9022 26.3468 17.1485 26.3468 17.3728 26.43C17.404 26.4416 17.4347 26.4543 17.4649 26.4682C17.6824 26.568 17.8566 26.7421 18.2048 27.0904C19.0064 27.8919 19.4072 28.2927 19.9004 28.3297C19.9667 28.3347 20.0333 28.3347 20.0996 28.3297C20.5927 28.2927 20.9935 27.8919 21.7951 27.0904C22.1433 26.7421 22.3175 26.568 22.535 26.4682C22.5652 26.4543 22.5959 26.4416 22.6271 26.43C22.8514 26.3468 23.0977 26.3468 23.5902 26.3468H23.6811C24.9376 26.3468 25.5659 26.3468 25.9563 25.9564C26.3467 25.5661 26.3467 24.9378 26.3467 23.6812V23.5903C26.3467 23.0978 26.3467 22.8515 26.4299 22.6272C26.4415 22.596 26.4542 22.5653 26.4681 22.5351C26.5678 22.3176 26.742 22.1435 27.0902 21.7952C27.8918 20.9936 28.2926 20.5928 28.3296 20.0997C28.3345 20.0334 28.3345 19.9668 28.3296 19.9005C28.2926 19.4073 27.8918 19.0065 27.0902 18.205C26.742 17.8567 26.5678 17.6826 26.4681 17.4651C26.4542 17.4348 26.4415 17.4041 26.4299 17.373C26.3467 17.1486 26.3467 16.9024 26.3467 16.4098V16.319C26.3467 15.0624 26.3467 14.4341 25.9563 14.0437C25.5659 13.6534 24.9376 13.6534 23.6811 13.6534H23.5902Z" stroke="#534FEB"/>
</svg>
