<svg width="40" height="40" viewBox="0 0 40 40" fill="none" xmlns="http://www.w3.org/2000/svg">
<rect x="0.25" y="0.25" width="39.5" height="39.5" rx="7.75" stroke="black" stroke-opacity="0.2" stroke-width="0.5"/>
<path d="M23.3333 28.3332C22.4449 27.2959 21.278 26.6665 20 26.6665C18.7219 26.6665 17.555 27.2959 16.6666 28.3332" stroke="#534FEB" stroke-linecap="round"/>
<path d="M20 20.8333C18.9433 20.8333 17.8259 21.016 16.9501 21.2606C16.2905 21.4448 15.76 22.2845 15.8417 22.9662C15.872 23.2188 16.0895 23.3333 16.3181 23.3333H23.6819C23.9106 23.3333 24.1281 23.2188 24.1584 22.9662C24.2401 22.2845 23.7095 21.4448 23.05 21.2606C22.1741 21.016 21.0568 20.8333 20 20.8333Z" stroke="#534FEB" stroke-linecap="round"/>
<path d="M27.5 18.3333C26.5795 18.3333 25.8333 19.0794 25.8333 19.9999V20.8333C25.8333 21.7537 25.0871 22.4999 24.1666 22.4999" stroke="#534FEB" stroke-linecap="round" stroke-linejoin="round"/>
<path d="M12.5 18.3333C13.4205 18.3333 14.1667 19.0794 14.1667 19.9999V20.8333C14.1667 21.7537 14.9129 22.4999 15.8334 22.4999" stroke="#534FEB" stroke-linecap="round" stroke-linejoin="round"/>
<path d="M20 23.3333V28.3333" stroke="#534FEB" stroke-linecap="round" stroke-linejoin="round"/>
<path d="M20.6832 18.3332H19.3169C18.1485 18.3332 17.5642 18.3332 17.1416 17.9802C16.719 17.6272 16.5773 17.0209 16.2939 15.8083C15.8483 13.9017 15.6255 12.9485 16.0934 12.3075C16.5612 11.6665 17.4798 11.6665 19.3169 11.6665H20.6832C22.5203 11.6665 23.4389 11.6665 23.9067 12.3075C24.3746 12.9485 24.1518 13.9017 23.7062 15.8083C23.4228 17.0209 23.2811 17.6272 22.8585 17.9802C22.4358 18.3332 21.8516 18.3332 20.6832 18.3332Z" stroke="#534FEB" stroke-linecap="round" stroke-linejoin="round"/>
<path d="M20 18.3333V20.8333" stroke="#534FEB" stroke-linecap="round" stroke-linejoin="round"/>
</svg>
