<svg width="40" height="40" viewBox="0 0 40 40" fill="none" xmlns="http://www.w3.org/2000/svg">
<rect x="0.25" y="0.25" width="39.5" height="39.5" rx="7.75" stroke="black" stroke-opacity="0.2" stroke-width="0.5"/>
<path d="M20 22.5L20 23.75" stroke="#534FEB" stroke-linecap="round" stroke-linejoin="round"/>
<path d="M12.5 19.1665L12.6274 21.5526C12.7643 24.564 12.8327 26.0697 13.799 26.9931C14.7654 27.9165 16.2726 27.9165 19.2872 27.9165H20.7128C23.7274 27.9165 25.2346 27.9165 26.201 26.9931C27.1673 26.0697 27.2357 24.564 27.3726 21.5526L27.5 19.1665" stroke="#534FEB" stroke-linecap="round" stroke-linejoin="round"/>
<path d="M12.3727 18.7025C13.7888 21.3954 16.9827 22.5 20 22.5C23.0174 22.5 26.2113 21.3954 27.6274 18.7025C28.3033 17.4171 27.7915 15 26.1267 15H13.8734C12.2086 15 11.6967 17.4171 12.3727 18.7025Z" stroke="#534FEB"/>
<path d="M23.3333 14.9999L23.2597 14.7424C22.893 13.459 22.7097 12.8173 22.2732 12.4503C21.8367 12.0833 21.257 12.0833 20.0974 12.0833H19.9025C18.743 12.0833 18.1632 12.0833 17.7267 12.4503C17.2902 12.8173 17.1069 13.459 16.7402 14.7424L16.6666 14.9999" stroke="#534FEB"/>
</svg>
