<svg width="40" height="40" viewBox="0 0 40 40" fill="none" xmlns="http://www.w3.org/2000/svg">
<rect x="0.25" y="0.25" width="39.5" height="39.5" rx="7.75" stroke="black" stroke-opacity="0.2" stroke-width="0.5"/>
<ellipse cx="20" cy="20.8335" rx="7.5" ry="7.5" stroke="#534FEB" stroke-linecap="round"/>
<path d="M14.1667 25.8335L12.5 27.5002M25.8333 25.8335L27.5 27.5002" stroke="#534FEB" stroke-linecap="round" stroke-linejoin="round"/>
<path d="M25.8333 12.9747L26.3295 12.7266C27.0339 12.3744 27.2985 12.4147 27.8585 12.9747C28.4185 13.5348 28.4589 13.7994 28.1067 14.5038L27.8585 15M14.1666 12.9747L13.6704 12.7266C12.966 12.3744 12.7014 12.4147 12.1414 12.9747C11.5814 13.5348 11.5411 13.7994 11.8933 14.5038L12.1414 15" stroke="#534FEB" stroke-linecap="round"/>
<path d="M20 17.9167V21.2501L21.6667 22.9167" stroke="#534FEB" stroke-linecap="round" stroke-linejoin="round"/>
<path d="M20 12.9167V11.6667" stroke="#534FEB" stroke-linecap="round" stroke-linejoin="round"/>
<path d="M18.3333 11.6667H21.6666" stroke="#534FEB" stroke-linecap="round" stroke-linejoin="round"/>
</svg>
