<svg width="24" height="24" viewBox="0 0 24 24" fill="none" xmlns="http://www.w3.org/2000/svg">
<path d="M13.1002 23C11.7002 23 10.3879 22.7333 9.16324 22.2C7.93858 21.6667 6.87191 20.9457 5.96324 20.037C5.05458 19.129 4.33358 18.0623 3.80024 16.837C3.26691 15.6117 3.00024 14.2993 3.00024 12.9C3.00024 10.4667 3.77524 8.32067 5.32524 6.462C6.87524 4.60333 8.85024 3.44933 11.2502 3C10.9502 4.65 11.0419 6.26267 11.5252 7.838C12.0086 9.41333 12.8419 10.7923 14.0252 11.975C15.2086 13.1583 16.5879 13.9917 18.1632 14.475C19.7386 14.9583 21.3509 15.05 23.0002 14.75C22.5669 17.15 21.4169 19.125 19.5502 20.675C17.6836 22.225 15.5336 23 13.1002 23ZM13.1002 21C14.5669 21 15.9252 20.6333 17.1752 19.9C18.4252 19.1667 19.4086 18.1583 20.1252 16.875C18.6919 16.7417 17.3336 16.379 16.0502 15.787C14.7669 15.195 13.6169 14.391 12.6002 13.375C11.5836 12.3583 10.7752 11.2083 10.1752 9.925C9.57524 8.64167 9.21691 7.28333 9.10024 5.85C7.81691 6.56667 6.81291 7.55433 6.08824 8.813C5.36358 10.0717 5.00091 11.434 5.00024 12.9C5.00024 15.15 5.78791 17.0627 7.36324 18.638C8.93858 20.2133 10.8509 21.0007 13.1002 21Z" fill="#0043FF"/>
</svg>
