<svg width="28" height="28" viewBox="0 0 28 28" fill="none" xmlns="http://www.w3.org/2000/svg">
<path d="M17.5001 15.1667H19.2501V18.4567L22.0967 20.1017L21.2217 21.6184L17.5001 19.4717V15.1667ZM21.1517 10.885C20.1017 7.94504 17.3017 5.83337 14.0001 5.83337C10.8501 5.83337 8.16675 7.75837 7.00008 10.5C3.78008 10.5 1.16675 13.1134 1.16675 16.3334C1.16675 19.5534 3.78008 22.1667 7.00008 22.1667H11.2934C12.6117 24.92 15.4117 26.8334 18.6667 26.8334C23.1817 26.8334 26.8334 23.1817 26.8334 18.6667C26.8334 15.0267 24.4534 11.9467 21.1517 10.885ZM7.00008 19.8334C5.06341 19.8334 3.50008 18.27 3.50008 16.3334C3.50008 14.3967 5.06341 12.8334 7.00008 12.8334C7.43175 12.8334 7.85175 12.915 8.23675 13.055C8.46192 11.6892 9.16508 10.4479 10.2207 9.5525C11.2764 8.65712 12.6158 8.16597 14.0001 8.16671C15.9017 8.16671 17.5817 9.08837 18.6667 10.5C14.1401 10.5 10.5001 14.1634 10.5001 18.6667C10.5001 19.0634 10.5351 19.4484 10.5934 19.8334H7.00008ZM18.6667 24.5C15.4467 24.5 12.8334 21.8867 12.8334 18.6667C12.8334 15.4467 15.4467 12.8334 18.6667 12.8334C21.8867 12.8334 24.5001 15.4467 24.5001 18.6667C24.5001 21.8867 21.8867 24.5 18.6667 24.5Z" fill="#0043FF"/>
</svg>
