<svg width="17" height="17" viewBox="0 0 17 17" fill="none" xmlns="http://www.w3.org/2000/svg">
<path d="M14.6043 12.2746L12.6505 10.3208C11.9527 9.62308 10.7665 9.90222 10.4874 10.8093C10.2781 11.4373 9.58035 11.7862 8.95236 11.6466C7.55683 11.2977 5.67287 9.48353 5.32398 8.01822C5.11465 7.39021 5.53331 6.69244 6.1613 6.48314C7.0684 6.20403 7.3475 5.01783 6.64974 4.32007L4.696 2.36633C4.13778 1.87789 3.30047 1.87789 2.81203 2.36633L1.48628 3.69208C0.160524 5.08761 1.62583 8.78576 4.90532 12.0653C8.18482 15.3448 11.883 16.8799 13.2785 15.4843L14.6043 14.1586C15.0927 13.6003 15.0927 12.763 14.6043 12.2746Z" fill="#000842"/>
</svg>
