<svg width="23" height="21" viewBox="0 0 23 21" fill="none" xmlns="http://www.w3.org/2000/svg">
<path d="M11.5001 1.75C6.22925 1.75 1.91675 5.6875 1.91675 10.5C1.91675 15.3125 6.22925 19.25 11.5001 19.25C16.7709 19.25 21.0834 15.3125 21.0834 10.5C21.0834 5.6875 16.7709 1.75 11.5001 1.75ZM11.5001 15.6625C8.43341 15.6625 5.84591 13.3875 5.84591 10.5C5.84591 9.0125 6.61258 7.525 7.85841 6.5625C8.24175 6.3 8.91258 6.3 9.20008 6.65C9.58341 7.0875 9.48758 7.6125 9.10425 7.9625C8.24175 8.575 7.76258 9.5375 7.76258 10.5875C7.76258 12.425 9.39175 14 11.5001 14C13.6084 14 15.2376 12.5125 15.2376 10.5875C15.2376 9.625 14.7584 8.6625 13.8959 7.9625C13.5126 7.7 13.4167 7.0875 13.8001 6.7375C14.1834 6.3875 14.7584 6.3 15.1417 6.65C16.3876 7.6125 17.1542 9.1 17.1542 10.5875C17.1542 13.3875 14.5667 15.6625 11.5001 15.6625ZM11.5001 4.8125C11.9792 4.8125 12.4584 5.1625 12.4584 5.6875V8.925C12.4584 9.3625 11.9792 9.8 11.5001 9.8C11.0209 9.8 10.5417 9.3625 10.5417 8.925V5.6875C10.5417 5.1625 11.0209 4.8125 11.5001 4.8125Z" fill="#98A2B3"/>
</svg>
