<svg width="1314" height="24" viewBox="0 0 1314 24" fill="none" xmlns="http://www.w3.org/2000/svg">
<path d="M201.751 240.739H37.3876C36.0985 240.739 34.8621 240.227 33.9505 239.315C33.039 238.404 32.5269 237.167 32.5269 235.878V4.81818C32.5381 3.53642 33.0551 2.31098 33.9655 1.4086C34.8758 0.506218 36.1058 -4.91403e-05 37.3876 3.5775e-09H201.751C203.04 3.57751e-09 204.276 0.512113 205.188 1.42368C206.099 2.33525 206.611 3.5716 206.611 4.86075V235.878C206.611 237.167 206.099 238.404 205.188 239.315C204.276 240.227 203.04 240.739 201.751 240.739ZM37.3876 0.170255C36.1556 0.172505 34.9747 0.662918 34.1035 1.53409C33.2323 2.40526 32.7419 3.58617 32.7397 4.81818V235.878C32.7419 237.11 33.2323 238.291 34.1035 239.162C34.9747 240.034 36.1556 240.524 37.3876 240.526H201.751C202.983 240.524 204.164 240.034 205.035 239.162C205.906 238.291 206.396 237.11 206.399 235.878V4.81818C206.396 3.58617 205.906 2.40526 205.035 1.53409C204.164 0.662918 202.983 0.172505 201.751 0.170255H37.3876Z" fill="#EBEBEB"/>
<path d="M385.889 240.739H221.509C220.22 240.737 218.985 240.224 218.074 239.313C217.163 238.402 216.65 237.167 216.648 235.878V4.81818C216.661 3.53712 217.179 2.31296 218.089 1.41106C218.999 0.509152 220.228 0.00216928 221.509 0H385.889C387.168 0.00443043 388.393 0.512676 389.3 1.41458C390.207 2.31648 390.721 3.53937 390.733 4.81818V235.878C390.733 237.164 390.223 238.398 389.315 239.309C388.407 240.22 387.175 240.734 385.889 240.739ZM221.509 0.170255C220.277 0.172505 219.096 0.662918 218.225 1.53409C217.353 2.40526 216.863 3.58617 216.861 4.81818V235.878C216.863 237.11 217.353 238.291 218.225 239.162C219.096 240.034 220.277 240.524 221.509 240.526H385.889C387.121 240.524 388.302 240.034 389.173 239.162C390.044 238.291 390.535 237.11 390.537 235.878V4.81818C390.535 3.58617 390.044 2.40526 389.173 1.53409C388.302 0.662918 387.121 0.172505 385.889 0.170255H221.509Z" fill="#EBEBEB"/>
</svg>
