<svg width="29" height="29" viewBox="0 0 29 29" fill="none" xmlns="http://www.w3.org/2000/svg">
<path fill-rule="evenodd" clip-rule="evenodd" d="M19.038 15.5333H15.1408V19.5259C15.1408 20.1112 14.6777 20.5862 14.1072 20.5862C13.5367 20.5862 13.0737 20.1112 13.0737 19.5259V15.5333H9.17655C8.60603 15.5333 8.143 15.0583 8.143 14.473C8.143 13.8877 8.60603 13.4127 9.17655 13.4127H13.0737V9.42007C13.0737 8.83476 13.5367 8.35973 14.1072 8.35973C14.6777 8.35973 15.1408 8.83476 15.1408 9.42007V13.4127H19.038C19.6085 13.4127 20.0715 13.8877 20.0715 14.473C20.0715 15.0583 19.6085 15.5333 19.038 15.5333ZM14.1072 0C3.69046 0 0 3.78613 0 14.473C0 25.1598 3.69046 28.9459 14.1072 28.9459C24.5227 28.9459 28.2145 25.1598 28.2145 14.473C28.2145 3.78613 24.5227 0 14.1072 0Z" fill="black"/>
</svg>
