<svg width="20" height="20" viewBox="0 0 20 20" fill="none" xmlns="http://www.w3.org/2000/svg">
<path d="M2.08331 9.99992C2.08331 6.26797 2.08331 4.40199 3.24268 3.24262C4.40205 2.08325 6.26803 2.08325 9.99998 2.08325C13.7319 2.08325 15.5979 2.08325 16.7573 3.24262C17.9166 4.40199 17.9166 6.26797 17.9166 9.99992C17.9166 13.7319 17.9166 15.5978 16.7573 16.7572C15.5979 17.9166 13.7319 17.9166 9.99998 17.9166C6.26803 17.9166 4.40205 17.9166 3.24268 16.7572C2.08331 15.5978 2.08331 13.7319 2.08331 9.99992Z" stroke="black"/>
<path d="M9.02778 6.6665L7.32425 8.42849C6.60808 9.16923 6.25 9.5396 6.25 9.99984C6.25 10.4601 6.60808 10.8304 7.32425 11.5712L9.02778 13.3332M13.75 6.6665L12.0465 8.42849C11.3303 9.16923 10.9722 9.5396 10.9722 9.99984C10.9722 10.4601 11.3303 10.8304 12.0465 11.5712L13.75 13.3332" stroke="black" stroke-linecap="round" stroke-linejoin="round"/>
</svg>
