<svg width="20" height="20" viewBox="0 0 20 20" fill="none" xmlns="http://www.w3.org/2000/svg">
<path d="M2.08337 9.99992C2.08337 6.26797 2.08337 4.40199 3.24274 3.24262C4.40211 2.08325 6.26809 2.08325 10 2.08325C13.732 2.08325 15.598 2.08325 16.7573 3.24262C17.9167 4.40199 17.9167 6.26797 17.9167 9.99992C17.9167 13.7319 17.9167 15.5978 16.7573 16.7572C15.598 17.9166 13.732 17.9166 10 17.9166C6.26809 17.9166 4.40211 17.9166 3.24274 16.7572C2.08337 15.5978 2.08337 13.7319 2.08337 9.99992Z" stroke="black"/>
<path d="M10.9722 6.6665L12.6758 8.42849C13.3919 9.16923 13.75 9.5396 13.75 9.99984C13.75 10.4601 13.3919 10.8304 12.6758 11.5712L10.9722 13.3332M6.25 6.6665L7.95353 8.42849C8.66969 9.16923 9.02778 9.5396 9.02778 9.99984C9.02778 10.4601 8.6697 10.8304 7.95353 11.5712L6.25 13.3332" stroke="black" stroke-linecap="round" stroke-linejoin="round"/>
</svg>
