<svg width="25" height="25" viewBox="0 0 25 25" fill="none" xmlns="http://www.w3.org/2000/svg">
<path d="M12.5002 22.9166C11.2155 22.9166 10.0044 22.6691 8.86691 22.1739C7.72941 21.6788 6.73566 21.0062 5.88566 20.1562C5.03497 19.3055 4.36205 18.3114 3.86691 17.1739C3.37177 16.0364 3.12455 14.8257 3.12525 13.5416H5.20858C5.20858 15.5555 5.92038 17.2743 7.344 18.6979C8.76761 20.1215 10.4864 20.8333 12.5002 20.8333C14.5141 20.8333 16.2329 20.1215 17.6565 18.6979C19.0801 17.2743 19.7919 15.5555 19.7919 13.5416H21.8752C21.8752 14.8263 21.6277 16.0375 21.1325 17.175C20.6374 18.3125 19.9648 19.3062 19.1148 20.1562C18.2641 21.0069 17.27 21.6798 16.1325 22.175C14.995 22.6701 13.7843 22.9173 12.5002 22.9166ZM3.12525 13.5416C3.12525 12.2569 3.37282 11.0458 3.86795 9.90829C4.36309 8.77079 5.03566 7.77704 5.88566 6.92704C6.73636 6.07635 7.73045 5.40343 8.86795 4.90829C10.0055 4.41315 11.2162 4.16593 12.5002 4.16663C13.5766 4.16663 14.6096 4.34024 15.5992 4.68746C16.5888 5.03468 17.5176 5.53815 18.3857 6.19788L19.844 4.73954L21.3023 6.19788L19.844 7.65621C20.5037 8.52426 21.0072 9.45308 21.3544 10.4427C21.7016 11.4323 21.8752 12.4652 21.8752 13.5416H19.7919C19.7919 11.5277 19.0801 9.80899 17.6565 8.38538C16.2329 6.96176 14.5141 6.24996 12.5002 6.24996C10.4864 6.24996 8.76761 6.96176 7.344 8.38538C5.92038 9.80899 5.20858 11.5277 5.20858 13.5416H3.12525ZM9.37525 3.12496V1.04163H15.6252V3.12496H9.37525ZM12.5002 6.24996C10.66 6.24996 9.06275 6.84892 7.70858 8.04683C6.35441 9.24475 5.54712 10.7291 5.2867 12.5H8.98462L10.3388 15L14.5836 7.55204L17.2919 12.5H19.7138C19.4534 10.7291 18.6461 9.24475 17.2919 8.04683C15.9377 6.84892 14.3405 6.24996 12.5002 6.24996ZM12.5002 20.8333C14.3405 20.8333 15.9377 20.2343 17.2919 19.0364C18.6461 17.8385 19.4534 16.3541 19.7138 14.5833H16.0159L14.6617 12.0833L10.4169 19.5312L7.70858 14.5833H5.2867C5.54712 16.3541 6.35441 17.8385 7.70858 19.0364C9.06275 20.2343 10.66 20.8333 12.5002 20.8333ZM12.5002 20.8333C10.4864 20.8333 8.76761 20.1215 7.344 18.6979C5.92038 17.2743 5.20858 15.5555 5.20858 13.5416C5.20858 11.5277 5.92038 9.80899 7.344 8.38538C8.76761 6.96176 10.4864 6.24996 12.5002 6.24996C14.5141 6.24996 16.2329 6.96176 17.6565 8.38538C19.0801 9.80899 19.7919 11.5277 19.7919 13.5416C19.7919 15.5555 19.0801 17.2743 17.6565 18.6979C16.2329 20.1215 14.5141 20.8333 12.5002 20.8333Z" fill="#0043FF"/>
</svg>
