<svg width="110" height="48" viewBox="0 0 110 48" fill="none" xmlns="http://www.w3.org/2000/svg">
<path d="M0.729492 23.6692C0.729492 22.5646 1.62492 21.6692 2.72949 21.6692H3.72949C4.83406 21.6692 5.72949 22.5646 5.72949 23.6692V45.6692C5.72949 46.7738 4.83406 47.6692 3.72949 47.6692H2.72949C1.62492 47.6692 0.729492 46.7738 0.729492 45.6692V23.6692Z" fill="#0C21C1"/>
<path d="M13.7295 14.6692C13.7295 13.5646 14.6249 12.6692 15.7295 12.6692H16.7295C17.8341 12.6692 18.7295 13.5646 18.7295 14.6692V45.6692C18.7295 46.7738 17.8341 47.6692 16.7295 47.6692H15.7295C14.6249 47.6692 13.7295 46.7738 13.7295 45.6692V14.6692Z" fill="#0C21C1"/>
<path d="M26.7295 14.6692C26.7295 13.5646 27.6249 12.6692 28.7295 12.6692H29.7295C30.8341 12.6692 31.7295 13.5646 31.7295 14.6692V45.6692C31.7295 46.7738 30.8341 47.6692 29.7295 47.6692H28.7295C27.6249 47.6692 26.7295 46.7738 26.7295 45.6692V14.6692Z" fill="#0C21C1"/>
<path d="M39.7295 2.66919C39.7295 1.56462 40.6249 0.669189 41.7295 0.669189H42.7295C43.8341 0.669189 44.7295 1.56462 44.7295 2.66919V45.6692C44.7295 46.7738 43.8341 47.6692 42.7295 47.6692H41.7295C40.6249 47.6692 39.7295 46.7738 39.7295 45.6692V2.66919Z" fill="#0C21C1"/>
<path d="M52.7295 6.66919C52.7295 5.56462 53.6249 4.66919 54.7295 4.66919H55.7295C56.8341 4.66919 57.7295 5.56462 57.7295 6.66919V45.6692C57.7295 46.7738 56.8341 47.6692 55.7295 47.6692H54.7295C53.6249 47.6692 52.7295 46.7738 52.7295 45.6692V6.66919Z" fill="#0C21C1"/>
<path d="M65.7295 14.6692C65.7295 13.5646 66.6249 12.6692 67.7295 12.6692H68.7295C69.8341 12.6692 70.7295 13.5646 70.7295 14.6692V45.6692C70.7295 46.7738 69.8341 47.6692 68.7295 47.6692H67.7295C66.6249 47.6692 65.7295 46.7738 65.7295 45.6692V14.6692Z" fill="#0C21C1"/>
<path d="M78.7295 26.6692C78.7295 25.5646 79.6249 24.6692 80.7295 24.6692H81.7295C82.8341 24.6692 83.7295 25.5646 83.7295 26.6692V45.6692C83.7295 46.7738 82.8341 47.6692 81.7295 47.6692H80.7295C79.6249 47.6692 78.7295 46.7738 78.7295 45.6692V26.6692Z" fill="#0C21C1"/>
<path d="M91.7295 6.66919C91.7295 5.56462 92.6249 4.66919 93.7295 4.66919H94.7295C95.8341 4.66919 96.7295 5.56462 96.7295 6.66919V45.6692C96.7295 46.7738 95.8341 47.6692 94.7295 47.6692H93.7295C92.6249 47.6692 91.7295 46.7738 91.7295 45.6692V6.66919Z" fill="#0C21C1"/>
<path d="M104.729 23.6692C104.729 22.5646 105.625 21.6692 106.729 21.6692H107.729C108.834 21.6692 109.729 22.5646 109.729 23.6692V45.6692C109.729 46.7738 108.834 47.6692 107.729 47.6692H106.729C105.625 47.6692 104.729 46.7738 104.729 45.6692V23.6692Z" fill="#0C21C1"/>
</svg>
