<svg width="21" height="19" viewBox="0 0 21 19" fill="none" xmlns="http://www.w3.org/2000/svg">
<path d="M10.5 0.75C5.22913 0.75 0.916626 4.6875 0.916626 9.5C0.916626 14.3125 5.22913 18.25 10.5 18.25C15.7708 18.25 20.0833 14.3125 20.0833 9.5C20.0833 4.6875 15.7708 0.75 10.5 0.75ZM10.5 14.6625C7.43329 14.6625 4.84579 12.3875 4.84579 9.5C4.84579 8.0125 5.61246 6.525 6.85829 5.5625C7.24163 5.3 7.91246 5.3 8.19996 5.65C8.58329 6.0875 8.48746 6.6125 8.10413 6.9625C7.24163 7.575 6.76246 8.5375 6.76246 9.5875C6.76246 11.425 8.39163 13 10.5 13C12.6083 13 14.2375 11.5125 14.2375 9.5875C14.2375 8.625 13.7583 7.6625 12.8958 6.9625C12.5125 6.7 12.4166 6.0875 12.8 5.7375C13.1833 5.3875 13.7583 5.3 14.1416 5.65C15.3875 6.6125 16.1541 8.1 16.1541 9.5875C16.1541 12.3875 13.5666 14.6625 10.5 14.6625ZM10.5 3.8125C10.9791 3.8125 11.4583 4.1625 11.4583 4.6875V7.925C11.4583 8.3625 10.9791 8.8 10.5 8.8C10.0208 8.8 9.54163 8.3625 9.54163 7.925V4.6875C9.54163 4.1625 10.0208 3.8125 10.5 3.8125Z" fill="#98A2B3"/>
</svg>
