<svg width="16" height="14" viewBox="0 0 16 14" fill="none" xmlns="http://www.w3.org/2000/svg">
<path fill-rule="evenodd" clip-rule="evenodd" d="M12.2286 0.602727C12.424 0.152028 12.9691 -0.0636516 13.4461 0.120994C14.6221 0.576246 15.4668 1.62859 15.4668 2.86177V12.4017C15.4668 12.7251 15.2793 13.0227 14.9784 13.1769C14.6775 13.3311 14.3113 13.3173 14.0244 13.1409L10.7577 11.1325C10.7373 11.1199 10.7175 11.1066 10.6982 11.0926C10.3398 10.8325 9.79828 10.6894 9.15302 10.6894H3.67655C2.38232 10.6894 1.17652 10.0141 0.626036 8.93525C0.402167 8.49653 0.597085 7.96939 1.0614 7.75786C1.52571 7.54633 2.0836 7.7305 2.30747 8.16923C2.52561 8.59673 3.04922 8.9256 3.67655 8.9256H9.15302C10.0333 8.9256 11.0146 9.11219 11.8039 9.67137L13.6001 10.7757V2.86177C13.6001 2.42129 13.2918 1.96734 12.7384 1.75312C12.2614 1.56848 12.0332 1.05343 12.2286 0.602727Z" fill="#4ADE80"/>
</svg>
