<svg width="20" height="18" viewBox="0 0 20 18" fill="none" xmlns="http://www.w3.org/2000/svg">
<path d="M9.58333 0C4.3125 0 0 3.9375 0 8.75C0 13.5625 4.3125 17.5 9.58333 17.5C14.8542 17.5 19.1667 13.5625 19.1667 8.75C19.1667 3.9375 14.8542 0 9.58333 0ZM9.58333 13.9125C6.51667 13.9125 3.92917 11.6375 3.92917 8.75C3.92917 7.2625 4.69583 5.775 5.94167 4.8125C6.325 4.55 6.99583 4.55 7.28333 4.9C7.66667 5.3375 7.57083 5.8625 7.1875 6.2125C6.325 6.825 5.84583 7.7875 5.84583 8.8375C5.84583 10.675 7.475 12.25 9.58333 12.25C11.6917 12.25 13.3208 10.7625 13.3208 8.8375C13.3208 7.875 12.8417 6.9125 11.9792 6.2125C11.5958 5.95 11.5 5.3375 11.8833 4.9875C12.2667 4.6375 12.8417 4.55 13.225 4.9C14.4708 5.8625 15.2375 7.35 15.2375 8.8375C15.2375 11.6375 12.65 13.9125 9.58333 13.9125ZM9.58333 3.0625C10.0625 3.0625 10.5417 3.4125 10.5417 3.9375V7.175C10.5417 7.6125 10.0625 8.05 9.58333 8.05C9.10417 8.05 8.625 7.6125 8.625 7.175V3.9375C8.625 3.4125 9.10417 3.0625 9.58333 3.0625Z" fill="#98A2B3"/>
</svg>
